<?xml version="1.0" encoding="utf-8"?>
<!-- Generator: Adobe Illustrator 17.0.2, SVG Export Plug-In . SVG Version: 6.00 Build 0)  -->
<!DOCTYPE svg PUBLIC "-//W3C//DTD SVG 1.1//EN" "http://www.w3.org/Graphics/SVG/1.1/DTD/svg11.dtd">
<svg version="1.1" id="Capa_1" xmlns="http://www.w3.org/2000/svg" xmlns:xlink="http://www.w3.org/1999/xlink" x="0px" y="0px"
	 width="100px" height="100px" viewBox="0 0 100 100" enable-background="new 0 0 100 100" xml:space="preserve">
<g>
	<path fill="#1D1D1B" d="M76.016,11.727c-6.77-5.41-17.271-9.13-25.856-8.504c-8.585-0.626-19.086,3.094-25.856,8.504
		c-6.364,5.086-9.844,12.786-10.738,20.782c-1.019,9.114,0.887,18.112,4.783,26.36c5.835,12.352,19.746,27.532,29.698,36.253
		c0.667,0.584,1.413,0.774,2.113,0.697c0.7,0.077,1.446-0.113,2.113-0.697c9.952-8.721,23.863-23.901,29.698-36.253
		c3.896-8.247,5.802-17.245,4.783-26.36C85.86,24.513,82.38,16.813,76.016,11.727z M81.58,37.851
		c-0.177,7.838-2.354,15.703-6.594,22.339c-5.745,8.992-16.53,21.765-24.825,29.465c-8.296-7.7-19.08-20.473-24.825-29.465
		c-4.24-6.636-6.417-14.502-6.594-22.339c-0.159-7.045,1.83-14.312,6.57-19.642c9.281-10.434,27.037-12.668,39.43-7.099
		c3.575,1.607,7.638,4.143,10.268,7.099C79.75,23.539,81.738,30.806,81.58,37.851z"/>
	<path fill="#1D1D1B" d="M46.078,67.83c0.535-0.299,0.992-0.777,1.253-1.487c5.21-14.184-0.894-26.755-9.141-38.165
		c-0.699-0.967-2.185-2.452-3.802-3.456c-2.201-1.367-4.643-1.844-5.669,1.09c-5.691,16.272-0.653,33.152,14.04,42.533
		C44.063,69.177,45.321,68.742,46.078,67.83z M32.979,30.776c7.774,8.862,12.943,19.327,10.012,31.033
		C33.305,54.232,30.081,42.558,32.979,30.776z"/>
	<path fill="#1D1D1B" d="M73.05,28.431c-0.987-2.186-3.644-7.132-6.642-4.011C55.413,35.866,47.815,50.457,53.653,66.342
		c0.261,0.71,0.718,1.188,1.253,1.487c0.757,0.912,2.014,1.347,3.319,0.514c11.856-7.57,17.45-20.633,16.151-34.462
		C74.2,32.007,73.829,30.157,73.05,28.431z M57.992,61.809c-2.931-11.706,2.239-22.171,10.012-31.033
		C70.903,42.558,67.679,54.232,57.992,61.809z"/>
	<path fill="#1D1D1B" d="M53.708,73.355c-2.183,1.829-4.663,2.038-6.9,0.182c-2.697-2.237-6.594,1.616-3.873,3.873
		c4.674,3.877,10.031,3.685,14.646-0.183C60.292,74.957,56.396,71.103,53.708,73.355z"/>
</g>
</svg>
