<?xml version="1.0" encoding="utf-8"?>
<!-- Generator: Adobe Illustrator 17.0.2, SVG Export Plug-In . SVG Version: 6.00 Build 0)  -->
<!DOCTYPE svg PUBLIC "-//W3C//DTD SVG 1.1//EN" "http://www.w3.org/Graphics/SVG/1.1/DTD/svg11.dtd">
<svg version="1.1" id="Capa_1" xmlns="http://www.w3.org/2000/svg" xmlns:xlink="http://www.w3.org/1999/xlink" x="0px" y="0px"
	 width="100px" height="100px" viewBox="0 0 100 100" enable-background="new 0 0 100 100" xml:space="preserve">
<g>
	<path fill="#1D1D1B" d="M87.777,19.56c-6.753-6.024-15.685-5.991-23.736-4.169c-0.367,0.083-0.667,0.235-0.919,0.427
		c-2.808,0.532-5.607,1.048-8.44,1.266c1.056-3.129,2.677-6.103,4.925-8.898c2.186-2.719-1.656-6.612-3.865-3.865
		c-3.19,3.967-5.464,8.231-6.762,12.776c-2.916-0.206-5.793-0.732-8.68-1.279c-0.252-0.192-0.552-0.344-0.919-0.427
		c-8.051-1.822-16.983-1.855-23.736,4.169c-5.939,5.297-8.375,13.512-8.847,21.798C5.753,59.709,15.19,80.679,30.325,88.304
		c0.251,0.127,0.497,0.192,0.74,0.232c0.337,0.27,0.737,0.47,1.217,0.542c6.984,1.043,13.514-1.133,19.203-5.744
		c0.027-0.022,0.049-0.047,0.072-0.071c0.052-0.01,0.104-0.019,0.154-0.031c0.051,0.012,0.103,0.021,0.155,0.031
		c0.023,0.024,0.045,0.049,0.072,0.071c5.688,4.611,12.219,6.787,19.203,5.744c0.48-0.072,0.879-0.272,1.216-0.542
		c0.243-0.04,0.489-0.105,0.74-0.232c15.135-7.625,24.573-28.595,23.527-46.946C96.152,33.072,93.716,24.857,87.777,19.56z
		 M91.571,45.161C90.89,60.63,83.427,76.858,70.537,83.352c-0.034,0.017-0.057,0.04-0.089,0.058
		c-5.915,0.696-11.076-1.077-15.949-5.028c-0.245-0.198-0.485-0.314-0.723-0.398c-0.153-0.095-0.313-0.176-0.483-0.234
		c-0.483-0.378-1.033-0.535-1.581-0.483c-0.547-0.051-1.098,0.106-1.581,0.483c-0.17,0.058-0.33,0.139-0.483,0.234
		c-0.238,0.084-0.479,0.2-0.723,0.398c-4.874,3.951-10.035,5.724-15.949,5.028c-0.032-0.018-0.056-0.041-0.09-0.058
		C19.995,76.858,12.532,60.63,11.851,45.161c-0.301-6.842,1.016-14.125,5.181-19.317c5.199-6.481,13.619-6.528,20.664-4.993
		c0.267,0.215,0.602,0.375,1.013,0.453c3.051,0.577,6.104,1.18,9.186,1.465c-0.22,2.137-0.245,4.328-0.054,6.575
		c-1.251-0.294-2.496-0.747-3.726-1.4c-3.111-1.652-5.872,3.066-2.759,4.72c6.056,3.216,12.24,3.238,18.427,0.364
		c3.194-1.484,0.416-6.194-2.758-4.719c-1.235,0.574-2.473,0.952-3.708,1.178c-0.198-2.251-0.173-4.446,0.072-6.581
		c3.809-0.148,7.569-0.891,11.324-1.601c0.411-0.078,0.746-0.238,1.013-0.453c7.045-1.535,15.465-1.488,20.664,4.993
		C90.555,31.036,91.872,38.319,91.571,45.161z"/>
	<path fill="#1D1D1B" d="M40.803,72.097c-1.524,1.474-3.336,2.344-5.353,2.941c-3.372,0.998-1.935,6.274,1.453,5.27
		c2.92-0.865,5.564-2.218,7.765-4.347C47.205,73.508,43.336,69.647,40.803,72.097z"/>
	<path fill="#1D1D1B" d="M80.182,36.132c2.203,13.464,0.254,28.524-12.591,35.902c-3.054,1.755-0.303,6.478,2.759,4.719
		c15.132-8.692,17.707-26.152,15.102-42.075C84.884,31.207,79.618,32.685,80.182,36.132z"/>
</g>
</svg>
