<?xml version="1.0" encoding="iso-8859-1"?>
<!-- Generator: Adobe Illustrator 17.0.2, SVG Export Plug-In . SVG Version: 6.00 Build 0)  -->
<!DOCTYPE svg PUBLIC "-//W3C//DTD SVG 1.1//EN" "http://www.w3.org/Graphics/SVG/1.1/DTD/svg11.dtd">
<svg version="1.1" id="Capa_1" xmlns="http://www.w3.org/2000/svg" xmlns:xlink="http://www.w3.org/1999/xlink" x="0px" y="0px"
	 width="100px" height="100px" viewBox="0 0 100 100" style="enable-background:new 0 0 100 100;" xml:space="preserve">
<g>
	<path style="fill:#1E1E1C;" d="M88.716,44c-0.453-0.197-0.935-0.301-1.432-0.309l-0.064-0.009
		c-3.362-0.951-6.937-1.781-10.929-2.536l-0.421-0.08l0.277-0.328c0.136-0.161,0.262-0.312,0.375-0.45
		c3.321-4.041,7.452-9.068,8.54-13.982c0.595-2.688,0.603-7.247-1.241-8.964c-0.918-0.855-2.075-1.271-3.539-1.271
		c-2.327,0-5.099,1.089-7.324,1.965c-0.46,0.181-0.874,0.448-1.231,0.793l-0.052,0.039c-3.082,1.722-6.343,3.757-9.69,6.048
		l-0.357,0.244l-0.033-0.432c-0.041-0.528-0.082-0.995-0.122-1.378c-0.537-5.202-1.207-11.676-4.075-15.921
		c-1.534-2.271-4.893-5.469-7.557-5.469l-0.105,0.002c-3.921,0.131-5.979,4.593-7.635,8.178c-0.207,0.452-0.317,0.932-0.326,1.426
		l-0.011,0.067c-0.939,3.137-1.796,6.571-2.544,10.206l-0.082,0.399l-0.318-0.253c-7.553-6.015-14.014-8.458-19.209-7.254
		c-2.491,0.576-4.101,1.774-4.781,3.561c-1.433,3.757,1.031,10.177,7.323,19.083l0.243,0.344l-0.419,0.048
		c-9.52,1.099-15.771,3.938-18.581,8.438c-1.354,2.169-1.645,4.154-0.862,5.899c1.644,3.669,7.926,6.466,18.671,8.314l0.416,0.071
		l-0.262,0.33c-5.955,7.508-8.368,13.936-7.173,19.105c0.806,3.481,2.733,5.174,5.894,5.174c3.597,0,8.732-2.248,15.264-6.684
		l0.328-0.223l0.06,0.393c1.299,8.552,4.229,14.227,8.708,16.866c7.109,4.192,12.156-1.826,15.066-17.69l0.077-0.417l0.327,0.269
		c4.269,3.499,8.812,6.998,13.319,7.994c1.025,0.227,2.238,0.353,3.417,0.353c2.583,0,4.604-0.581,5.548-1.593
		c2.516-2.7,0.736-7.227-0.693-10.863c-0.184-0.466-0.443-0.868-0.794-1.231l-0.038-0.052c-1.696-3.035-3.691-6.238-5.931-9.521
		l-0.242-0.354l0.428-0.036c0.208-0.018,0.402-0.035,0.579-0.053c5.204-0.508,11.682-1.142,15.925-3.849
		c2.322-1.479,5.552-4.696,5.462-7.216C96.758,47.503,92.299,45.561,88.716,44z M10.261,52.342c-1.398-0.68-2.104-1.554-2.093-2.597
		c0.018-1.873,2.438-3.828,4.828-4.935c3.194-1.479,7.279-2.384,12.489-2.768l0.134-0.01l0.082,0.105
		c1.801,2.308,3.831,4.766,6.033,7.307l0.157,0.181l-0.174,0.165c-2.437,2.294-4.536,4.403-6.421,6.446l-0.089,0.097l-0.131-0.02
		C20.645,55.663,14.954,54.623,10.261,52.342z M35.01,72.946c-4.5,3.222-8.195,5.275-11.629,6.464
		c-0.59,0.204-1.129,0.307-1.604,0.307c-0.854,0-1.515-0.323-1.961-0.963c-1.089-1.56-0.587-4.532,0.174-6.604
		c1.212-3.305,3.461-6.833,6.873-10.787l0.088-0.102l0.132,0.017c2.384,0.294,4.963,0.552,7.667,0.767l0.237,0.019L34.979,62.3
		c-0.111,3.878-0.067,7.288,0.134,10.428l0.01,0.138L35.01,72.946z M35.312,55.088c-0.041,0.692-0.082,1.42-0.122,2.172
		l-0.015,0.261l-0.26-0.025c-1.19-0.116-2.379-0.247-3.564-0.384l-0.508-0.059l0.357-0.364c0.991-1.01,1.977-1.987,2.925-2.927
		c0.1-0.099,0.202-0.195,0.305-0.293c0.094-0.089,0.188-0.178,0.278-0.268l0.186-0.183l0.51,0.562L35.312,55.088z M35.964,45.805
		l-0.008,0.1l-0.728,0.654l-0.19-0.177c-1.183-1.415-2.32-2.841-3.374-4.171l-0.316-0.401l0.511-0.004
		c1.416-0.014,2.802-0.007,4.136-0.001l0.274,0.001l0.027,0.273C36.177,43.324,36.066,44.566,35.964,45.805z M38.157,27.554
		c-0.495,2.972-0.93,6.08-1.329,9.503l-0.026,0.228l-0.229-0.006c-3.094-0.083-5.951-0.073-8.571,0.032l-0.132,0.005l-0.078-0.105
		c-2.674-3.594-5.962-8.352-7.668-13.285c-0.444-1.284-0.406-2.304,0.111-3.03c0.54-0.759,1.596-1.16,3.051-1.16
		c1.222,0,2.716,0.291,4.098,0.798c3.276,1.202,6.772,3.423,10.689,6.79l0.106,0.092L38.157,27.554z M43.461,25.831
		c0.756-3.935,1.613-7.77,2.548-11.398c0.188-0.728,0.398-1.467,0.646-2.26c0.014-0.043,0.021-0.084,0.028-0.125
		s0.016-0.081,0.026-0.123c0.759-1.869,1.668-3.829,3.002-3.829c0.269,0,0.539,0.082,0.806,0.243
		c0.904,0.546,2.547,1.672,3.386,3.072c1.17,1.951,1.644,4.522,2.062,6.791l0.062,0.33c0.536,2.896,0.919,6.052,1.167,9.647
		l0.01,0.137l-0.11,0.082c-2.017,1.487-4.102,3.089-6.196,4.759l-0.182,0.145l-0.158-0.169c-2.517-2.709-4.813-5.021-7.02-7.071
		l-0.102-0.094L43.461,25.831z M41.618,37.207c0.275-2.054,0.523-3.753,0.779-5.348l0.077-0.478l0.345,0.339
		c1.02,1,2.006,1.994,2.952,2.95c0.235,0.238,0.468,0.482,0.7,0.727c0.181,0.189,0.36,0.379,0.542,0.566l0.189,0.194l-0.208,0.173
		c-0.519,0.43-1.033,0.863-1.547,1.296l-0.076,0.064l-1.609-0.098c-0.61-0.034-1.251-0.068-1.909-0.102l-0.271-0.014L41.618,37.207z
		 M39.836,68.823c-0.047-2.007-0.041-3.969-0.031-5.968l0.009-0.467l0.26,0.014c1.257,0.07,2.512,0.132,3.762,0.185l0.099,0.004
		l0.068,0.07c0.553,0.562,1.099,1.111,1.638,1.651l0.193,0.193l-0.21,0.176c-1.76,1.466-3.535,2.896-5.277,4.251l-0.482,0.375
		L39.836,68.823z M55.17,73.623c-0.693,4.491-1.802,10.251-4.231,14.97c-0.714,1.387-1.627,2.089-2.714,2.089
		c-1.98,0-4.056-2.423-5.234-4.823c-1.399-2.854-2.308-6.39-2.777-10.811l-0.015-0.14l0.112-0.086
		c2.676-2.039,5.556-4.394,8.56-6.997l0.174-0.15l0.164,0.159c2.067,2.009,4.102,3.934,5.884,5.566l0.099,0.091L55.17,73.623z
		 M56.496,63.132c-0.153,1.526-0.332,3.109-0.531,4.706l-0.061,0.485l-0.358-0.334c-1.065-0.994-2.11-1.991-3.106-2.963l-0.19-0.186
		l0.198-0.179c0.645-0.581,1.282-1.164,1.918-1.748l0.072-0.066l2.086,0.011L56.496,63.132z M57.459,47.622
		c-0.058,2.18-0.148,4.399-0.271,6.596l-0.006,0.099l-0.071,0.068c-1.369,1.309-2.796,2.637-4.362,4.06l-0.073,0.067l-0.1-0.002
		c-2.195-0.042-4.458-0.118-6.724-0.226l-0.1-0.005l-0.069-0.072c-1.973-2.051-3.754-3.963-5.445-5.847l-0.07-0.077l0.006-0.104
		c0.077-1.286,0.176-2.661,0.312-4.327l0.008-0.099l0.073-0.066c2.159-1.962,4.199-3.749,6.237-5.462l0.076-0.064l0.1,0.006
		c2.021,0.117,4.086,0.266,6.138,0.443l0.099,0.008l0.066,0.074c1.405,1.578,2.791,3.18,4.119,4.762l0.061,0.072L57.459,47.622z
		 M56.585,38.512c-0.388-0.037-0.775-0.074-1.163-0.107l-0.1-0.008l-1.576-1.766l0.288-0.223c1.01-0.778,2.019-1.557,3.039-2.314
		l0.388-0.288l0.012,0.482c0.033,1.348,0.054,2.694,0.063,4.037l0.002,0.276L56.585,38.512z M62.021,30.528
		c3.532-2.468,7.059-4.777,10.482-6.862c0.649-0.394,1.332-0.787,2.029-1.167c0.04-0.021,0.074-0.046,0.108-0.07
		c0.033-0.023,0.066-0.046,0.103-0.068c1.209-0.541,2.554-1.101,3.571-1.101c1.057,0,1.413,0.612,1.526,1.125
		c0.217,0.991,0.517,2.884,0.087,4.434c-0.599,2.16-2.101,4.295-3.426,6.18l-0.19,0.27c-1.55,2.207-3.308,4.444-5.374,6.84
		l-0.091,0.105l-0.137-0.021c-2.557-0.393-5.302-0.752-8.393-1.099l-0.22-0.025l-0.002-0.222c-0.024-2.797-0.086-5.524-0.182-8.104
		l-0.005-0.136L62.021,30.528z M67.183,44.276l-0.328,0.348c-1.109,1.178-2.225,2.319-3.072,3.183l-0.194,0.198l-0.177-0.214
		c-0.423-0.511-0.848-1.018-1.273-1.524l-0.06-0.071l0.001-0.093c0.011-0.755,0.019-1.502,0.023-2.239l0.002-0.283l0.506,0.065
		c1.347,0.175,2.738,0.355,4.1,0.56L67.183,44.276z M61.655,58.292c0.045-0.78,0.088-1.56,0.125-2.337l0.005-0.098l1.319-1.303
		l0.429,0.557c0.761,0.988,1.521,1.976,2.26,2.977l0.283,0.385L65.6,58.486c-1.232,0.036-2.463,0.057-3.691,0.07l-0.268,0.003
		L61.655,58.292z M75.868,73.048c0.389,0.641,0.782,1.323,1.168,2.028c0.021,0.041,0.045,0.074,0.068,0.107
		c0.024,0.034,0.048,0.068,0.07,0.105c0.722,1.618,1.434,3.398,0.926,4.402c-0.183,0.361-0.503,0.595-0.952,0.693
		c-0.633,0.139-1.603,0.305-2.632,0.305c-0.677,0-1.283-0.073-1.802-0.217c-2.16-0.599-4.295-2.101-6.178-3.426l-0.272-0.191
		c-1.826-1.282-3.722-2.753-5.793-4.493l-0.104-0.088l0.018-0.137c0.377-2.831,0.696-5.886,0.948-9.079l0.018-0.228l0.229-0.003
		c2.574-0.034,5.046-0.096,7.345-0.185l0.137-0.005l0.078,0.112C71.533,66.184,73.797,69.647,75.868,73.048z M90.507,51.942
		c-0.547,0.854-1.674,2.406-3.073,3.197c-1.951,1.104-4.523,1.552-6.792,1.947l-0.326,0.057c-2.65,0.463-5.474,0.802-8.632,1.035
		l-0.139,0.011l-0.081-0.112c-1.553-2.117-3.244-4.326-5.027-6.563l-0.138-0.173l0.154-0.158c2.028-2.072,3.943-4.08,5.692-5.969
		l0.093-0.1l0.135,0.024c4.133,0.736,8.185,1.585,12.04,2.522c0.733,0.179,1.473,0.378,2.26,0.609
		c0.046,0.013,0.088,0.021,0.13,0.028c0.038,0.007,0.077,0.014,0.116,0.023c1.657,0.635,3.42,1.392,3.771,2.46
		C90.815,51.164,90.754,51.556,90.507,51.942z"/>
</g>
</svg>
