<?xml version="1.0" encoding="iso-8859-1"?>
<!-- Generator: Adobe Illustrator 17.0.2, SVG Export Plug-In . SVG Version: 6.00 Build 0)  -->
<!DOCTYPE svg PUBLIC "-//W3C//DTD SVG 1.1//EN" "http://www.w3.org/Graphics/SVG/1.1/DTD/svg11.dtd">
<svg version="1.1" id="Capa_1" xmlns="http://www.w3.org/2000/svg" xmlns:xlink="http://www.w3.org/1999/xlink" x="0px" y="0px"
	 width="100px" height="100px" viewBox="0 0 100 100" style="enable-background:new 0 0 100 100;" xml:space="preserve">
<g>
	<path style="fill:#1E1E1C;" d="M56.472,3.83c-0.078-0.007-0.146,0.003-0.22,0.002c-0.005,0-0.01-0.002-0.015-0.002
		c-21.994-0.762-45.112,12.02-43.114,36.752c0.008,0.1,0.033,0.189,0.051,0.282c-0.029,0.256-0.029,0.524,0.033,0.815
		c1.206,5.644-0.645,10.606-5.278,14.066c-0.212,0.159-0.375,0.34-0.517,0.529c-0.468,0.308-0.838,0.78-1.037,1.351
		c-0.869,2.494-0.209,5.033,1.784,6.768c0.329,0.286,0.709,0.48,1.105,0.585c1.287,0.711,2.632,1.183,4.029,1.513
		c-0.287,1.549-0.146,3.116,0.6,4.59c-1.393,2.715-0.468,5.71,2.282,7.345c0.155,0.092,0.31,0.162,0.462,0.216
		c0.467,0.555,0.512,1.448,0.34,2.306c-0.053,0.263-0.06,0.525-0.04,0.781c-0.012,0.233-0.005,0.469,0.04,0.707
		c0.725,3.803,3.973,5.903,7.69,5.97c0.2,0.004,0.385-0.016,0.559-0.051c0.172,0.007,0.352-0.003,0.538-0.033
		c5.969-0.967,12.765-0.427,15.007,6.129c0.448,1.31,1.646,1.754,2.719,1.581c0.362,0.271,0.838,0.426,1.438,0.384
		c10.816-0.756,21.537-2.327,32.276-3.769c0.38-0.051,0.709-0.174,0.993-0.347c1.302-0.406,2.354-1.864,1.513-3.434
		c-7.176-13.379,7.371-27.974,10.132-40.827c0.06-0.278,0.061-0.535,0.037-0.78C92.797,26.149,78.19,5.786,56.472,3.83z
		 M85.298,46.317c-0.029,0.195-0.033,0.382-0.022,0.562c-2.999,13.752-16.151,27.047-10.944,41.446
		c-9.78,1.328-19.554,2.692-29.405,3.381c-0.07,0.005-0.131,0.024-0.198,0.034c-3.521-7.836-11.714-9.242-19.82-8.015
		c-0.081-0.009-0.156-0.027-0.243-0.029c-0.923-0.017-1.405-0.113-2.125-0.553c0.063,0.02-0.37-0.325-0.366-0.32
		c-0.062-0.062-0.101-0.099-0.129-0.124c0-0.018-0.025-0.074-0.116-0.221c-0.137-0.22-0.238-0.53-0.322-0.879
		c0.418-2.887-0.402-5.395-2.821-7.24c-0.194-0.148-0.412-0.231-0.637-0.286c-0.07-0.058-0.138-0.115-0.211-0.189
		c0.013,0.006,0.001-0.023-0.041-0.091c0-0.06-0.004-0.079-0.011-0.073c0.029-0.125,0.057-0.25,0.101-0.371
		c0.001-0.005,0.352-0.55,0.468-0.714c0.325-0.458,0.391-1.014,0.289-1.548c0.097-0.528,0.028-1.078-0.289-1.537
		c-0.891-1.291-0.716-2.39,0-3.747c1.025-1.943-0.821-3.716-2.457-3.535c-0.017-0.002-0.032-0.007-0.049-0.01
		c-1.659-0.219-3.263-0.704-4.701-1.563c-0.103-0.061-0.204-0.099-0.305-0.144c-0.072-0.104-0.139-0.211-0.199-0.322
		c-0.01-0.03-0.018-0.056-0.032-0.099c-0.012-0.055-0.02-0.091-0.028-0.126c-0.004-0.108-0.001-0.215,0.004-0.323
		c0.008-0.029,0.023-0.097,0.043-0.202c5.984-4.675,8.554-11.102,7.098-18.614c0.003-0.094,0.013-0.182,0.005-0.282
		C16.039,18.352,36.721,7.866,56.236,8.542c0.062,0.002,0.116-0.009,0.176-0.011c0.021,0.002,0.039,0.009,0.06,0.011
		C75,10.211,87.937,28.28,85.298,46.317z"/>
	<path style="fill:#1E1E1C;" d="M61.5,15.25H47.25c-1.052,0-1.667,0.667-1.861,1.455c-0.425,0.315-0.701,0.824-0.639,1.545
		c1.039,12.059,2.331,24.089,4.322,36.032c0.191,1.148,1.084,1.551,1.966,1.42c0.144,0.031,0.297,0.048,0.462,0.048h6
		c1.322,0,1.961-1.05,1.929-2.074c0.035-0.133,0.061-0.274,0.071-0.426c0.807-11.891,2.703-23.66,4-35.5
		c0.037-0.336-0.003-0.624-0.095-0.871C63.264,16.017,62.629,15.25,61.5,15.25z M55.617,51.75h-2.923
		c-1.742-10.778-2.906-21.626-3.856-32.5h10.488C58.096,30.086,56.438,40.871,55.617,51.75z"/>
	<path style="fill:#1E1E1C;" d="M48.438,61.309c-4.379,6.528,5.904,12.905,10.604,6.953c1.557-1.972,1.84-3.874,1.333-5.472
		C58.994,58.442,51.76,56.357,48.438,61.309z M54.586,66.782c-0.118,0.027-0.233,0.046-0.344,0.056
		c-2.718,0.25-3.271-4.396-0.115-4.556C56.84,62.145,57.003,66.225,54.586,66.782z"/>
</g>
</svg>
