<?xml version="1.0" encoding="utf-8"?>
<!-- Generator: Adobe Illustrator 16.0.0, SVG Export Plug-In . SVG Version: 6.00 Build 0)  -->
<!DOCTYPE svg PUBLIC "-//W3C//DTD SVG 1.1//EN" "http://www.w3.org/Graphics/SVG/1.1/DTD/svg11.dtd">
<svg version="1.1" id="Capa_1" xmlns="http://www.w3.org/2000/svg" xmlns:xlink="http://www.w3.org/1999/xlink" x="0px" y="0px"
	 width="100px" height="100px" viewBox="0 0 100 100" enable-background="new 0 0 100 100" xml:space="preserve">
<g>
	<path d="M51.819,84.533c1.549,0.765,3.081,0.85,4.463-0.609c0.622-0.655,1.118-1.565,1.683-2.379
		c4.676,3.884,9.912,0.232,10.436-7.943c2.988,1.847,5.864,1.803,8.455-1.345c2.982-3.623,3.17-8.211,1.852-13.267
		c0.436,0,0.786,0.06,1.124-0.012c1.301-0.275,2.646-0.365,3.889-0.935c3.857-1.773,5.661-5.697,5.889-11.076
		c0.172-4.05-1.054-7.293-3.226-9.647c-2.666-2.896-5.732-3.23-8.9-2.448c-0.991,0.246-1.975,0.587-3.039,0.91
		c0.453-4.793-0.354-8.972-3.121-11.763c-2.79-2.816-5.757-2.033-8.65-0.143c-0.06-0.476-0.102-0.938-0.178-1.386
		c-0.503-2.954-1.517-5.347-3.482-6.63c-1.371-0.897-2.8-1.078-4.287-0.72c-1.73,0.416-3.108,1.429-4.139,3.024
		c-0.537-1.279-1.354-2.175-2.408-2.695c-1.547-0.767-3.081-0.852-4.463,0.606c-0.622,0.654-1.117,1.567-1.682,2.38
		c-4.676-3.886-9.913-0.232-10.435,7.942c-2.989-1.847-5.865-1.802-8.456,1.346c-2.983,3.624-3.171,8.212-1.852,13.268
		c-0.436,0-0.786-0.061-1.125,0.01c-1.301,0.276-2.646,0.365-3.888,0.936c-3.858,1.772-5.661,5.696-5.889,11.075
		c-0.171,4.052,1.054,7.296,3.225,9.65c2.667,2.894,5.734,3.228,8.901,2.445c0.994-0.247,1.974-0.587,3.04-0.908
		c-0.453,4.793,0.355,8.971,3.121,11.763c2.79,2.816,5.757,2.032,8.65,0.143c0.061,0.475,0.103,0.935,0.178,1.386
		c0.503,2.953,1.517,5.342,3.482,6.629c1.373,0.899,2.8,1.078,4.288,0.72c1.731-0.414,3.108-1.429,4.139-3.024
		C49.949,83.114,50.767,84.009,51.819,84.533z M43.111,81.047c-0.794-0.149-1.518-0.643-2.068-1.585
		c-1.147-1.963-1.203-4.262-1.046-6.675c0.033-0.525-0.067-1.191-0.276-1.605c-0.49-0.96-1.309-0.938-2.036-0.18
		c-0.666,0.69-1.332,1.437-2.072,1.912c-1.489,0.954-3.031,1.446-4.641,0.469c-2.008-1.216-3.166-4.437-2.857-7.833
		c0.126-1.386,0.493-2.682,1.306-3.619c0.587-0.675,0.666-1.841,0.268-2.705c-0.343-0.752-1.059-0.958-1.713-0.623
		c-1.629,0.846-3.248,1.768-4.913,2.419c-1.687,0.656-3.42,0.892-5.172,0.299c-2.771-0.941-5.102-4.023-4.834-8.524
		c0.169-2.828,1.064-5.005,2.749-6.328c2.567-2.017,5.283-2.091,8.041-0.942c0.777,0.324,1.261,0.12,1.654-0.787
		c0.313-0.719,0.156-1.725-0.281-2.496c-0.537-0.943-1.158-1.871-1.479-2.974c-0.688-2.357-1.004-4.824,0.209-7.092
		c1.206-2.255,2.984-3.731,5.22-2.877c1.359,0.52,2.474,1.575,3.498,2.905c0.529,0.688,1.149,0.928,1.643,0.552
		c0.578-0.438,0.866-1.203,0.736-2.187c-0.071-0.536-0.262-1.037-0.397-1.556c-0.59-2.241-0.416-4.316,0.63-6.195
		c1.146-2.061,2.646-2.338,4.279-1.725c0.953,0.358,1.708,1.24,2.311,2.367c0.429,0.801,1.146,0.807,1.648,0.526
		c0.537-0.3,0.754-1.055,0.71-2.131c-0.012-0.329-0.02-0.728,0.088-0.986c0.503-1.22,0.936-2.238,2.398-1.948
		c0.846,0.167,1.728,0.869,1.932,2.473c0.045,0.36,0.145,0.687,0.298,0.941c-0.014,0.061-0.029,0.116-0.042,0.178
		c-0.144,0.661-0.107,1.482,0.007,2.173c0.144,0.861,0.743,1.206,1.486,1.065c0.438-0.083,0.882-0.872,0.986-1.674
		c0.234-1.811,0.935-3.168,1.961-4.167c1.083-1.056,2.309-1.197,3.547-0.96c0.795,0.151,1.519,0.645,2.069,1.586
		c1.147,1.963,1.203,4.265,1.047,6.674c-0.034,0.526,0.065,1.194,0.276,1.608c0.489,0.96,1.308,0.936,2.034,0.18
		c0.668-0.692,1.333-1.438,2.072-1.912c1.49-0.955,3.032-1.446,4.643-0.472c2.008,1.218,3.164,4.438,2.856,7.835
		c-0.126,1.385-0.494,2.683-1.308,3.618c-0.586,0.678-0.664,1.839-0.268,2.708c0.344,0.747,1.06,0.956,1.713,0.62
		c1.629-0.844,3.248-1.766,4.915-2.416c1.687-0.658,3.42-0.896,5.17-0.301c2.772,0.941,5.104,4.024,4.834,8.525
		c-0.167,2.829-1.063,5.005-2.748,6.328c-2.566,2.016-5.282,2.09-8.04,0.941c-0.776-0.324-1.262-0.121-1.654,0.787
		c-0.313,0.721-0.157,1.727,0.281,2.495c0.536,0.944,1.157,1.872,1.478,2.974c0.689,2.357,1.004,4.827-0.207,7.094
		c-1.207,2.256-2.985,3.732-5.221,2.877c-1.359-0.52-2.474-1.576-3.497-2.905c-0.53-0.689-1.149-0.928-1.645-0.553
		c-0.577,0.438-0.866,1.202-0.735,2.189c0.072,0.533,0.262,1.036,0.397,1.552c0.591,2.241,0.415,4.317-0.63,6.198
		c-1.146,2.059-2.646,2.336-4.278,1.724c-0.953-0.358-1.708-1.241-2.313-2.367c-0.428-0.801-1.146-0.806-1.647-0.528
		c-0.537,0.302-0.755,1.058-0.711,2.133c0.013,0.331,0.02,0.728-0.087,0.988c-0.504,1.217-0.936,2.234-2.399,1.945
		c-0.845-0.167-1.728-0.867-1.931-2.472c-0.046-0.359-0.146-0.688-0.298-0.944c0.013-0.058,0.028-0.115,0.041-0.175
		c0.144-0.661,0.107-1.482-0.008-2.173c-0.144-0.864-0.744-1.206-1.486-1.066c-0.438,0.082-0.882,0.874-0.986,1.676
		c-0.234,1.808-0.934,3.169-1.96,4.165C45.575,81.144,44.349,81.286,43.111,81.047z"/>
	<path d="M45.632,95.764c0.865-0.206,1.711-0.692,2.531-1.186c0.006-0.003,0.01-0.008,0.016-0.012l3.501,0.805
		c0.179,0.234,0.417,0.397,0.72,0.434c0.863,0.104,1.733,0.201,2.599,0.175c1.699-0.054,3.23-0.89,4.633-2.299
		c0.177-0.179,0.456-0.213,0.686-0.198c1.448,0.099,2.914,0.493,4.34,0.285c2.143-0.313,4.105-1.557,5.83-3.531
		c1.22-1.396,2.241-3.051,2.995-5.029c0.171-0.45,0.351-0.527,0.653-0.541c0.906-0.044,1.827-0.016,2.718-0.237
		c2.014-0.501,3.854-1.695,5.468-3.545c1.631-1.867,3.038-4.044,4.005-6.778c0.847-2.396,1.229-4.95,1.241-7.673
		c2.268-0.921,4.381-2.251,6.227-4.464c2-2.396,3.443-5.32,4.266-8.899c0.624-2.718,0.873-5.507,0.755-8.397
		c-0.093-2.241-0.45-4.34-1.071-6.36c-1.223-3.98-3.104-7.131-5.653-9.362c-2.23-1.954-4.663-3.034-7.268-3.185
		c-0.936-0.056-1.874-0.027-2.811,0c-0.305,0.009-0.474-0.119-0.571-0.564c-0.862-3.92-2.396-7.158-4.657-9.602
		c-1.962-2.117-4.172-3.299-6.607-3.486c-0.856-0.066-1.717,0.015-2.574-0.03c-0.194-0.011-0.431-0.208-0.568-0.428
		c-0.623-0.984-1.178-2.064-1.827-3.007c-2.144-3.108-4.781-4.512-7.753-4.614c-1.029-0.036-2.074-0.03-3.085,0.206
		c-0.867,0.202-1.713,0.691-2.532,1.184l-3.863-1.094c-0.113-0.065-0.234-0.116-0.375-0.133c-0.053-0.008-0.107-0.014-0.162-0.02
		l-0.004-0.001v0.001C46.624,4.081,45.81,3.996,45,4.021c-1.699,0.053-3.232,0.89-4.633,2.3c-0.177,0.179-0.456,0.213-0.685,0.198
		c-1.449-0.099-2.914-0.493-4.34-0.285c-2.143,0.312-4.105,1.556-5.83,3.53c-1.222,1.396-2.242,3.051-2.996,5.03
		c-0.172,0.45-0.35,0.525-0.653,0.542c-0.907,0.043-1.828,0.015-2.716,0.235c-2.015,0.503-3.854,1.696-5.468,3.544
		c-1.631,1.868-3.038,4.046-4.004,6.779c-0.848,2.396-1.23,4.952-1.242,7.675c-2.268,0.918-4.38,2.25-6.228,4.463
		c-1.999,2.396-3.442,5.321-4.265,8.898c-0.625,2.718-0.873,5.507-0.754,8.397c0.091,2.242,0.449,4.34,1.071,6.361
		c1.223,3.979,3.104,7.13,5.652,9.361c2.232,1.954,4.665,3.033,7.268,3.186c0.936,0.057,1.875,0.025,2.81,0
		c0.307-0.009,0.475,0.118,0.573,0.564c0.863,3.92,2.395,7.157,4.657,9.601c1.96,2.118,4.172,3.297,6.607,3.485
		c0.856,0.066,1.717-0.015,2.574,0.031c0.195,0.01,0.431,0.207,0.569,0.427c0.622,0.983,1.178,2.065,1.826,3.007
		c2.145,3.108,4.781,4.511,7.752,4.614C43.575,96.005,44.622,95.996,45.632,95.764z M52.02,92.186l-3.971-0.914L48.034,91.4
		c-0.146-0.083-0.314-0.122-0.517-0.088c-0.395,0.072-0.801,0.094-1.181,0.253c-1.893,0.794-3.794,0.87-5.699,0.152
		c-2.566-0.961-4.552-3.06-5.829-6.523c-0.36-0.979-1.069-1.596-1.651-1.413c-1.214,0.38-2.418,0.405-3.655,0.188
		c-2.185-0.378-4.066-1.682-5.65-3.856c-1.585-2.176-2.609-4.877-3.093-8c-0.206-1.323-0.635-1.838-1.563-1.811
		c-0.562,0.016-1.124,0.167-1.686,0.159c-0.909-0.013-1.818-0.104-2.726-0.17c-1.558-0.108-3.026-0.772-4.418-1.731
		c-1.615-1.114-2.976-2.716-4.131-4.755c-1.388-2.455-2.191-5.25-2.444-8.361c-0.204-2.49,0.05-4.986,0.638-7.325
		c0.994-3.948,2.729-7.069,5.354-8.87c1.341-0.919,2.798-1.474,4.203-2.188c0.758-0.385,1.011-0.915,1.033-2.072
		c0.019-0.948,0.078-1.894,0.118-2.838c0.134-3.19,1.19-5.771,2.638-7.982c1.107-1.69,2.374-3.17,3.921-3.976
		c1.5-0.781,3.016-1.346,4.634-0.928c1.05,0.271,1.647-0.237,2.133-1.627c0.644-1.833,1.519-3.367,2.619-4.675
		c1.655-1.967,3.546-2.941,5.631-2.987c0.987-0.021,1.983,0.322,2.963,0.59c0.655,0.18,1.216,0.09,1.749-0.545
		c1.256-1.494,2.708-2.229,4.321-2.229c0.561,0,1.123,0.12,1.687,0.168l4.75,0.751L52.18,8.684c0.093,0.018,0.191,0.025,0.302,0.006
		c0.396-0.071,0.803-0.093,1.182-0.253c1.894-0.794,3.794-0.868,5.699-0.152c2.566,0.963,4.552,3.061,5.829,6.526
		c0.359,0.979,1.068,1.594,1.651,1.411c1.214-0.379,2.417-0.403,3.654-0.189c2.185,0.38,4.065,1.683,5.65,3.858
		c1.585,2.178,2.608,4.876,3.092,8.001c0.206,1.322,0.635,1.839,1.563,1.81c0.563-0.02,1.124-0.168,1.686-0.16
		c0.908,0.012,1.816,0.104,2.726,0.167c1.557,0.11,3.026,0.774,4.419,1.735c1.613,1.112,2.976,2.713,4.13,4.754
		c1.388,2.455,2.191,5.248,2.444,8.359c0.204,2.491-0.051,4.986-0.638,7.325c-0.993,3.949-2.729,7.068-5.355,8.872
		c-1.34,0.92-2.797,1.474-4.202,2.188c-0.758,0.386-1.011,0.915-1.032,2.073c-0.02,0.948-0.079,1.892-0.118,2.838
		c-0.134,3.189-1.191,5.77-2.638,7.979c-1.107,1.691-2.374,3.171-3.923,3.977c-1.498,0.781-3.016,1.347-4.633,0.928
		c-1.05-0.269-1.647,0.24-2.134,1.628c-0.644,1.833-1.519,3.367-2.618,4.675c-1.654,1.968-3.545,2.943-5.631,2.988
		c-0.986,0.021-1.982-0.323-2.963-0.591c-0.655-0.18-1.217-0.089-1.749,0.547c-1.256,1.492-2.708,2.228-4.32,2.228
		c-0.562,0-1.123-0.119-1.687-0.167C52.37,92.027,52.187,92.083,52.02,92.186z"/>
	<path d="M53.181,74.976c0.644-0.084,0.879-0.787,0.993-1.547c0.204-1.341,0.335-2.706,0.505-4.061
		c0.104-0.808,0.222-1.615,0.348-2.535c1.408,1.739,2.711,3.403,4.063,4.979c0.374,0.438,0.914,0.915,1.337,0.846
		c1.089-0.182,1.388-0.999,1.211-2.768c-0.302-3.012-0.619-6.019-0.936-9.093c0.145,0,0.248-0.033,0.339,0.006
		c2.926,1.212,5.852,2.429,8.774,3.655c0.732,0.308,1.515,0.116,1.802-0.479c0.405-0.835,0.434-1.759-0.063-2.51
		c-0.818-1.233-1.699-2.38-2.562-3.55c-0.503-0.68-1.029-1.324-1.532-2.006c-0.709-0.96-1.409-1.939-2.16-2.978
		c2.084-0.697,4.096-1.357,6.104-2.044c1.335-0.457,2.671-0.918,3.995-1.438c0.718-0.281,0.942-0.946,0.913-2.189
		c-0.023-0.972-0.493-1.396-0.998-1.53c-1.238-0.333-2.494-0.529-3.745-0.754c-1.433-0.259-2.867-0.468-4.297-0.74
		c-1.525-0.292-3.046-0.631-4.594-0.955c0.04-0.141,0.061-0.328,0.13-0.457c0.718-1.311,1.445-2.604,2.162-3.913
		c0.611-1.124,1.237-2.237,1.808-3.407c0.319-0.651,0.406-1.472,0.065-2.154c-0.305-0.613-0.701-1.103-1.328-0.79
		c-0.995,0.495-2.017,0.882-3.013,1.37c-2.223,1.09-4.438,2.213-6.67,3.328c-0.102-2.549-0.209-5.029-0.296-7.514
		c-0.031-0.886-0.269-1.558-0.862-1.811c-0.683-0.293-1.179,0.054-1.602,0.944c-0.706,1.494-1.437,2.965-2.138,4.464
		c-0.147,0.316-0.291,0.637-0.438,0.954c-0.058-0.227-0.114-0.455-0.173-0.681c-0.654-2.48-1.298-4.966-1.981-7.43
		c-0.275-0.993-0.718-1.27-1.523-1.163c-0.645,0.084-0.879,0.789-0.995,1.546c-0.203,1.342-0.334,2.708-0.504,4.062
		c-0.103,0.81-0.222,1.614-0.349,2.535c-1.408-1.738-2.709-3.404-4.061-4.98c-0.374-0.437-0.914-0.914-1.337-0.844
		c-1.088,0.182-1.387,0.999-1.211,2.767c0.302,3.011,0.619,6.018,0.936,9.094c-0.145,0-0.249,0.032-0.338-0.006
		c-2.926-1.214-5.852-2.43-8.775-3.654c-0.732-0.308-1.514-0.116-1.802,0.479c-0.405,0.836-0.433,1.759,0.064,2.509
		c0.818,1.234,1.698,2.379,2.562,3.551c0.503,0.681,1.03,1.323,1.533,2.005c0.709,0.96,1.408,1.939,2.16,2.976
		c-2.083,0.699-4.096,1.36-6.104,2.046c-1.336,0.457-2.671,0.919-3.996,1.438c-0.717,0.282-0.942,0.947-0.912,2.19
		c0.024,0.97,0.493,1.397,0.998,1.53c1.239,0.332,2.494,0.526,3.744,0.754c1.432,0.257,2.868,0.468,4.298,0.74
		c1.525,0.291,3.045,0.632,4.593,0.955c-0.04,0.141-0.061,0.328-0.13,0.457c-0.717,1.31-1.445,2.604-2.161,3.913
		c-0.613,1.123-1.239,2.236-1.809,3.408c-0.318,0.651-0.405,1.469-0.064,2.155c0.305,0.613,0.7,1.1,1.327,0.788
		c0.996-0.496,2.017-0.881,3.013-1.371c2.224-1.088,4.439-2.21,6.67-3.325c0.101,2.547,0.208,5.029,0.296,7.512
		c0.032,0.887,0.268,1.557,0.861,1.811c0.684,0.292,1.181-0.054,1.603-0.945c0.706-1.494,1.437-2.966,2.138-4.463
		c0.148-0.315,0.291-0.636,0.438-0.953c0.058,0.226,0.114,0.453,0.173,0.68c0.653,2.48,1.297,4.965,1.98,7.431
		C51.932,74.808,52.374,75.082,53.181,74.976z M52.98,62.412c-0.26,1.094-0.393,2.255-0.59,3.437
		c-0.34-1.291-0.697-2.555-1.002-3.846c-0.045-0.188-0.101-0.365-0.165-0.529c0.033-0.388-0.016-0.777-0.175-1.149
		c-0.67-1.565-1.812-0.97-2.285,0.013c-0.595,1.238-1.17,2.498-1.752,3.747c-0.075-0.015-0.149-0.031-0.223-0.048
		c0-1.135,0.004-2.27-0.001-3.404c-0.008-1.907-0.864-2.863-2.078-2.273c-1.323,0.64-2.63,1.341-3.949,1.999
		c-0.811,0.405-1.628,0.778-2.599,1.239c0.949-1.753,1.786-3.292,2.619-4.838c0.796-1.474,0.422-3.162-0.819-3.49
		c-1.023-0.274-2.065-0.39-3.099-0.579c-1.394-0.255-2.789-0.515-4.34-0.804c0.247-0.148,0.344-0.231,0.45-0.268
		c1.566-0.545,3.138-1.059,4.701-1.63c1.349-0.492,1.297-2.405,0.601-3.414c-0.745-1.083-1.551-2.073-2.331-3.104
		c-0.432-0.571-0.867-1.137-1.3-1.706c0.042-0.076,0.085-0.151,0.127-0.226c0.135,0.032,0.272,0.048,0.403,0.103
		c1.761,0.722,3.524,1.432,5.278,2.186c0.775,0.336,1.854-0.536,1.698-1.901c-0.068-0.608-0.072-1.233-0.128-1.847
		c-0.185-1.998-0.379-3.992-0.586-6.148c0.727,0.884,1.38,1.704,2.051,2.492c0.609,0.713,1.203,1.478,1.867,2.063
		c0.65,0.572,1.417,0.151,1.665-0.895c0.26-1.095,0.393-2.255,0.59-3.438c0.339,1.291,0.697,2.555,1.002,3.847
		c0.044,0.189,0.1,0.365,0.163,0.527c-0.032,0.389,0.017,0.78,0.176,1.151c0.67,1.566,1.812,0.972,2.285-0.012
		c0.596-1.237,1.17-2.498,1.753-3.748c0.073,0.016,0.148,0.031,0.222,0.048c0,1.135-0.005,2.27,0.001,3.404
		c0.009,1.908,0.864,2.862,2.077,2.275c1.324-0.642,2.632-1.342,3.949-2.001c0.811-0.404,1.628-0.776,2.599-1.238
		c-0.948,1.753-1.785,3.291-2.617,4.839c-0.796,1.473-0.424,3.159,0.818,3.49c1.022,0.271,2.065,0.388,3.1,0.577
		c1.394,0.255,2.787,0.516,4.34,0.805c-0.246,0.147-0.345,0.23-0.449,0.269c-1.566,0.544-3.139,1.058-4.701,1.628
		c-1.349,0.491-1.298,2.404-0.601,3.414c0.744,1.083,1.551,2.075,2.33,3.104c0.433,0.571,0.866,1.139,1.301,1.708
		c-0.042,0.073-0.085,0.15-0.127,0.225c-0.135-0.033-0.272-0.05-0.404-0.102c-1.76-0.724-3.523-1.434-5.277-2.186
		c-0.775-0.336-1.854,0.534-1.698,1.9c0.068,0.608,0.073,1.235,0.129,1.848c0.185,1.997,0.379,3.991,0.587,6.148
		c-0.728-0.886-1.381-1.706-2.052-2.492c-0.61-0.712-1.203-1.479-1.868-2.064C53.996,60.944,53.229,61.365,52.98,62.412z"/>
</g>
</svg>
