<?xml version="1.0" encoding="utf-8"?>
<!-- Generator: Adobe Illustrator 17.0.2, SVG Export Plug-In . SVG Version: 6.00 Build 0)  -->
<!DOCTYPE svg PUBLIC "-//W3C//DTD SVG 1.1//EN" "http://www.w3.org/Graphics/SVG/1.1/DTD/svg11.dtd">
<svg version="1.1" id="Capa_1" xmlns="http://www.w3.org/2000/svg" xmlns:xlink="http://www.w3.org/1999/xlink" x="0px" y="0px"
	 width="100px" height="100px" viewBox="0 0 100 100" enable-background="new 0 0 100 100" xml:space="preserve">
<g>
	<path fill="#1D1D1B" d="M66.967,21.532c-10.505-3.775-20.151-1.717-28.2,3.644c-0.032-0.109-0.059-0.218-0.08-0.324
		c-0.43-2.259,1.165-3.561,1.143-5.611c-0.027-2.557-1.938-4.336-4.411-4.611c-1.605-0.178-3.322,0.195-4.635,1.166
		c-0.331,0.244-2.767,3.796-2.269,3.808c-2.151-0.054-3.366-0.514-5.279,0.909c-1.358,1.01-2.609,2.599-2.929,4.294
		c-0.164,0.869-0.065,1.767,0.407,2.636c1.593,2.931,4.418,1.414,6.919,1.9c1.175,0.229,2.24,1.526,3.285,2.581
		c-2.24,2.418-4.279,5.097-6.093,7.949c-0.858-0.329-1.627-0.835-2.334-1.538c-0.17-0.169-0.359-0.305-0.563-0.404
		c-0.76-0.881-1.528-1.627-2.328-2.263c0.562-2.291,0.219-4.264-0.99-5.608c-1.192-1.326-3.056-2.117-4.987-2.117
		c-2.083,0-3.914,0.879-5.023,2.411c-0.146,0.202-1.148,2.425-1.321,4.033c-2.511,0.416-4.748,2.177-5.45,4.419
		c-0.671,2.143,0.154,4.211,2.262,5.675c1.043,0.725,2.287,1.093,3.697,1.093l0.229-0.003c0.317-0.009,0.79-0.137,1.874-0.449
		c0.42-0.121,1.009-0.291,1.323-0.366c0.106,0.065,0.224,0.136,0.35,0.21c0.397,0.236,1.328,0.79,1.475,0.99
		c0.045,0.12,0.044,0.124-0.019,0.32c-0.197,0.614-0.267,1.304,0.548,2.186c0.588,0.636,1.415,1.048,2.214,1.447
		c0.523,0.261,1.017,0.507,1.364,0.777c0.693,0.54,1.351,1.129,1.985,1.748c-3.843,7.118-5.568,18.265,0.825,24.328
		c4.595,4.358,12.752,5.244,18.738,6.234c8.388,1.387,17.01,1.489,25.449,0.539c10.428-1.174,24.348-4.125,30.151-13.899
		c5.767-9.713-0.611-21.049-5.802-29.493C83.378,31.826,76.302,24.886,66.967,21.532z M28.208,25.632
		c-1.203-0.08-3.837,2.039-4.153-0.305c-0.357-2.654,2.996-2.069,4.447-2.009c1.876,0.078,1.973,0.765,3.304-0.895
		c0.84-1.048,1.446-4.984,3.288-4.391c2.614,0.841-0.652,4.842-0.15,6.402c0.195,0.605,0.696,1.692,1.314,2.559
		c-0.818,0.641-1.616,1.316-2.395,2.022C32.593,27.518,30.184,25.764,28.208,25.632z M15.149,42.392
		c-0.753-0.579-1.531-1.178-2.357-1.717c-0.361-0.235-0.771-0.36-1.185-0.36c-0.218,0-0.435,0.034-0.647,0.1
		c-0.184,0.04-0.352,0.1-0.51,0.181c-0.926,0.469-1.871,0.728-2.662,0.728c-1.094,0-1.737-0.467-2.001-1.464
		c0.776-1.178,2.085-1.539,3.895-1.134c1.073,0.243,2.075-0.368,2.38-1.405c0.219-0.512,0.209-1.087-0.031-1.633
		c-0.669-1.518-0.487-2.543,0.617-3.389c1.398-0.208,2.257-0.063,2.607,0.397c0.481,0.631,0.453,1.514-0.09,2.861
		c-0.248,0.616-0.208,1.274,0.108,1.828c0.147,0.397,0.404,0.722,0.75,0.944c0.608,0.392,1.188,0.856,1.755,1.407
		C16.95,40.551,16.049,41.452,15.149,42.392z M17.752,45.989c0.044-0.046,0.088-0.092,0.129-0.141
		c0.115-0.132,0.21-0.282,0.287-0.446c0.83-0.874,1.719-1.776,2.752-2.794c1.787,1.329,3.831,1.977,6.22,1.977
		c2.112,0,4.281-0.492,6.321-0.996c5.164-1.275,9.38-1.644,12.993-1.149c3.39,0.464,7.829,1.987,9.725,6.602
		c1.911,4.652,1.118,9.83-2.069,13.513c-3.271,3.782-8.063,5.604-12.556,4.728c-3.387-0.661-6.452-2.582-9.369-5.873
		c-1.354-1.528-2.652-3.199-3.907-4.814C25.247,52.692,22.12,48.667,17.752,45.989z M86.244,73.447
		c-6.893,4.519-18.975,6.08-27.144,6.403c-12.265,0.485-26.108-0.596-37.094-6.587c-0.026-0.014-0.052-0.02-0.078-0.033
		c-3.028-5.814-2.614-11.918,0.102-17.582c0.887,1.088,1.737,2.209,2.576,3.316c2.803,3.696,5.701,7.519,9.832,10.02
		c2.857,1.729,6.113,2.644,9.417,2.644c0.001,0,0.001,0,0.002,0c6.345,0,12.034-3.265,15.216-8.732
		c2.618-4.497,3.084-10.026,1.247-14.792c-1.714-4.447-5.146-7.687-9.663-9.123c-3.691-1.172-7.928-1.331-13.589-0.457
		c-1.265,0.195-2.558,0.519-3.81,0.832c-1.248,0.312-2.519,0.617-3.756,0.803C38.18,27.69,52.437,18.819,67.708,26.21
		c6.581,3.185,13.411,10.809,17.601,16.645C91.399,51.337,97.227,66.247,86.244,73.447z"/>
	<path fill="#1D1D1B" d="M79.667,65.25c-0.812,0-1.532,0.317-2.028,0.895c-0.429,0.499-0.665,1.158-0.665,1.855
		c0,1.333,0.944,2.75,2.693,2.75c0.812,0,1.532-0.317,2.028-0.895c0.429-0.499,0.665-1.158,0.665-1.855
		C82.36,66.667,81.416,65.25,79.667,65.25z"/>
	<path fill="#1D1D1B" d="M82.972,59.145c-0.429,0.499-0.665,1.158-0.665,1.855c0,1.333,0.944,2.75,2.693,2.75
		c0.812,0,1.532-0.317,2.028-0.895c0.429-0.499,0.665-1.158,0.665-1.855c0-1.333-0.944-2.75-2.693-2.75
		C84.188,58.25,83.468,58.567,82.972,59.145z"/>
	<path fill="#1D1D1B" d="M81.639,52.145c-0.429,0.499-0.665,1.158-0.665,1.855c0,1.333,0.944,2.75,2.693,2.75
		c0.812,0,1.532-0.317,2.028-0.895c0.429-0.499,0.665-1.158,0.665-1.855c0-1.333-0.944-2.75-2.693-2.75
		C82.855,51.25,82.135,51.567,81.639,52.145z"/>
	<path fill="#1D1D1B" d="M79.36,60c0-1.333-0.944-2.75-2.693-2.75c-0.812,0-1.532,0.317-2.028,0.895
		c-0.429,0.499-0.665,1.158-0.665,1.855c0,1.333,0.944,2.75,2.693,2.75c0.812,0,1.532-0.317,2.028-0.895
		C79.123,61.356,79.36,60.697,79.36,60z"/>
	<path fill="#1D1D1B" d="M47,66.25c0.812,0,1.532-0.317,2.028-0.895c0.429-0.499,0.665-1.158,0.665-1.855
		c0-1.333-0.944-2.75-2.693-2.75c-0.812,0-1.532,0.317-2.028,0.895c-0.429,0.499-0.665,1.158-0.665,1.855
		C44.307,64.833,45.251,66.25,47,66.25z"/>
	<path fill="#1D1D1B" d="M52,51.25c0.812,0,1.532-0.318,2.028-0.895c0.429-0.499,0.665-1.157,0.665-1.855
		c0-1.333-0.944-2.75-2.693-2.75c-0.812,0-1.532,0.318-2.028,0.895c-0.429,0.499-0.665,1.157-0.665,1.855
		C49.307,49.833,50.251,51.25,52,51.25z"/>
	<path fill="#1D1D1B" d="M50.722,54.145c-0.429,0.499-0.665,1.158-0.665,1.855c0,1.333,0.944,2.75,2.693,2.75
		c0.812,0,1.532-0.317,2.028-0.895c0.429-0.499,0.665-1.158,0.665-1.855c0-1.333-0.944-2.75-2.693-2.75
		C51.938,53.25,51.218,53.567,50.722,54.145z"/>
	<path fill="#1D1D1B" d="M40.5,65.75c0.812,0,1.532-0.317,2.028-0.895c0.429-0.499,0.665-1.158,0.665-1.855
		c0-1.333-0.944-2.75-2.693-2.75c-0.812,0-1.532,0.317-2.028,0.895c-0.429,0.499-0.665,1.158-0.665,1.855
		C37.807,64.333,38.751,65.75,40.5,65.75z"/>
	<path fill="#1D1D1B" d="M72.75,63.75c-0.812,0-1.532,0.317-2.028,0.895c-0.429,0.499-0.665,1.158-0.665,1.855
		c0,1.333,0.944,2.75,2.693,2.75c0.812,0,1.532-0.317,2.028-0.895c0.429-0.499,0.665-1.158,0.665-1.855
		C75.443,65.167,74.499,63.75,72.75,63.75z"/>
	<path fill="#1D1D1B" d="M77.5,53.75c0.812,0,1.532-0.317,2.028-0.895c0.429-0.499,0.665-1.158,0.665-1.855
		c0-1.333-0.944-2.75-2.693-2.75c-0.812,0-1.532,0.318-2.028,0.895c-0.429,0.499-0.665,1.157-0.665,1.855
		C74.807,52.333,75.751,53.75,77.5,53.75z"/>
</g>
</svg>
