<?xml version="1.0" encoding="utf-8"?>
<!-- Generator: Adobe Illustrator 17.0.2, SVG Export Plug-In . SVG Version: 6.00 Build 0)  -->
<!DOCTYPE svg PUBLIC "-//W3C//DTD SVG 1.1//EN" "http://www.w3.org/Graphics/SVG/1.1/DTD/svg11.dtd">
<svg version="1.1" id="Capa_1" xmlns="http://www.w3.org/2000/svg" xmlns:xlink="http://www.w3.org/1999/xlink" x="0px" y="0px"
	 width="100px" height="100px" viewBox="0 0 100 100" enable-background="new 0 0 100 100" xml:space="preserve">
<g>
	<path fill="#1D1D1B" d="M74.75,11.985C66.674,5.952,57.474,2.823,47.84,3.662C5.297-3.537-7.758,55.007,18.461,82.125
		c17.655,18.26,47.158,15.825,64.193-1.653C102.105,60.514,96.115,27.945,74.75,11.985z M27.202,82.661
		c-6.104-3.992-10.549-9.719-13.421-16.248c10.252,0.12,20.491,0.749,30.745,0.794c0.625,0.003,1.102-0.223,1.446-0.565
		c3.131,1.834,6.752,2.719,10.163,1.034c0.755-0.373,1.34-0.848,1.807-1.384c0.178,0.052,0.367,0.09,0.577,0.096
		c9.08,0.273,18.147,0.869,27.231,0.847C75.569,89.136,46.883,95.536,27.202,82.661z M39.22,40.033
		c4.523,5.7,8.946,11.483,14.009,16.718c0.11,0.115,0.226,0.208,0.343,0.291c1.096,2.029,2.829,5.914,0.227,6.949
		c-2.775,1.105-6.018-1.023-8.156-2.898c0.001-0.231-0.027-0.474-0.117-0.737C43.233,53.641,41.242,46.833,39.22,40.033z
		 M88.943,45.674c0.2,1.617,0.133,17.166-1.48,17.184c-9.385,0.107-18.75-0.502-28.127-0.805
		c-0.042-6.257-5.045-10.344-8.739-14.741c-5.024-5.98-9.642-12.301-14.775-18.189c-0.142-0.163-0.293-0.286-0.447-0.389
		c-1.449-1.124-4.117,0.036-3.42,2.239c3.212,10.152,5.973,20.445,9.412,30.524c-0.137,0.412-0.15,0.86,0.021,1.294
		c-9.758-0.147-19.504-0.701-29.264-0.76c-0.993-0.006-2.248-13.436-2.296-14.818c-0.173-4.923,0.511-9.817,1.953-14.518
		c1.861-6.068,4.651-11.846,9.087-16.407c4.985-5.126,11.9-6.389,18.688-6.737c0.819-0.042,1.636-0.071,2.447-0.091
		c8.28-0.211,17.051-0.847,24.604,3.238c7.548,4.083,14.118,10.88,17.889,18.664C86.588,35.676,88.352,40.884,88.943,45.674z"/>
	<path fill="#1D1D1B" d="M21.384,44.969c-1.244,0-2.5,0.002-3.733-0.192c-1.158-0.182-2.311,0.278-2.648,1.504
		c-0.284,1.034,0.343,2.465,1.504,2.648c1.626,0.256,3.234,0.346,4.877,0.346C24.161,49.275,24.161,44.97,21.384,44.969z"/>
	<path fill="#1D1D1B" d="M26.238,24.543c-1.318-0.659-2.646-1.278-4.012-1.832c-1.09-0.441-2.364,0.471-2.648,1.504
		c-0.338,1.231,0.417,2.208,1.503,2.648c0.901,0.365,2.011,0.911,2.984,1.398c1.049,0.525,2.324,0.289,2.945-0.772
		C27.574,26.526,27.287,25.067,26.238,24.543z"/>
	<path fill="#1D1D1B" d="M41.489,15.066c-0.762-2.665-4.917-1.531-4.152,1.145c0.547,1.913,1.115,3.813,1.884,5.651
		c0.453,1.082,1.407,1.845,2.648,1.504c1.022-0.281,1.958-1.563,1.503-2.648C42.604,18.879,42.036,16.979,41.489,15.066z"/>
	<path fill="#1D1D1B" d="M62.026,15.663c-0.952-0.558-2.434-0.284-2.945,0.772c-0.915,1.891-1.525,3.882-2.101,5.896
		c-0.765,2.675,3.39,3.809,4.152,1.145c0.471-1.646,0.918-3.321,1.667-4.868C63.31,17.552,63.097,16.29,62.026,15.663z"/>
	<path fill="#1D1D1B" d="M73.68,28.108c-0.475,0.474-0.95,0.948-1.436,1.411c-0.235,0.225-0.476,0.444-0.717,0.661
		c-0.119,0.105-0.238,0.209-0.359,0.312c0.025-0.022-0.568,0.457-0.282,0.239c-0.931,0.711-1.421,1.839-0.772,2.945
		c0.538,0.919,2.01,1.486,2.945,0.772c1.316-1.005,2.496-2.128,3.665-3.297c0.83-0.829,0.83-2.215,0-3.044
		C75.895,27.279,74.509,27.279,73.68,28.108z"/>
	<path fill="#1D1D1B" d="M73.856,47.929c0,1.056,0.987,2.308,2.153,2.153c1.966-0.261,3.941-0.269,5.92-0.269
		c2.777-0.001,2.777-4.306,0-4.305c-1.979,0-3.954,0.008-5.92,0.269C74.846,45.931,73.856,46.638,73.856,47.929z"/>
	<path fill="#1D1D1B" d="M50.529,62.107c2.673,0,2.673-4.145,0-4.145S47.856,62.107,50.529,62.107z"/>
</g>
</svg>
