<?xml version="1.0" encoding="utf-8"?>
<!-- Generator: Adobe Illustrator 17.0.2, SVG Export Plug-In . SVG Version: 6.00 Build 0)  -->
<!DOCTYPE svg PUBLIC "-//W3C//DTD SVG 1.1//EN" "http://www.w3.org/Graphics/SVG/1.1/DTD/svg11.dtd">
<svg version="1.1" id="Capa_1" xmlns="http://www.w3.org/2000/svg" xmlns:xlink="http://www.w3.org/1999/xlink" x="0px" y="0px"
	 width="100px" height="100px" viewBox="0 0 100 100" enable-background="new 0 0 100 100" xml:space="preserve">
<g>
	<path fill="#1D1D1B" d="M88.912,22.287c-0.809-0.641-1.573-1.246-2.166-1.836c-1.69-1.685-3.213-3.557-4.685-5.367
		c-1.907-2.344-3.878-4.768-6.211-6.772c-0.612-0.525-1.311-0.792-2.077-0.792L73.57,7.499c-0.378-0.117-0.741-0.161-1.145-0.132
		C62.111,8.077,52.01,8.173,43.489,8.173c-3.611,0-7.223-0.02-10.834-0.04c-3.083-0.017-6.167-0.034-9.251-0.039
		c-0.513,0-0.981,0.104-1.399,0.307c-0.656,0.247-1.167,0.668-1.566,1.271c-3.681,5.56-7.982,11.122-13.537,17.504
		c-0.908,1.043-0.89,2.115-0.716,2.83l0.017,0.071L6.199,30.15c-0.02,0.389,0.016,0.729,0.113,1.071
		c7.013,24.696,24.259,48.284,47.316,64.714c0.365,0.26,0.758,0.386,1.204,0.386c10.006,0.001,35.53-57.858,38.539-66.821
		c0.224-0.667,0.258-1.312,0.103-1.968C93,25.525,90.828,23.805,88.912,22.287z M76.99,19.556l0.351-0.697l0.486,0.61
		c0.475,0.596,0.95,1.202,1.427,1.81c1.361,1.736,2.769,3.531,4.155,5.075l0.694,0.773l-1.038,0.06
		c-3.063,0.176-6.365,0.312-10.39,0.426l-1.051,0.03l0.641-0.834C73.715,24.919,75.562,22.388,76.99,19.556z M58.731,14.265
		c4.902-0.13,9.264-0.328,13.335-0.605l0.904-0.061l-0.509,0.934c-0.029,0.048-0.06,0.097-0.084,0.154
		c-1.457,3.394-3.517,6.29-5.339,8.675l-0.36,0.47l-0.403-0.433c-1.186-1.272-2.394-2.522-3.603-3.773
		c-1.42-1.47-2.889-2.989-4.296-4.523l-0.743-0.809L58.731,14.265z M53.899,19.508l0.363,0.393c1.327,1.433,2.686,2.835,4.044,4.237
		c0.904,0.934,1.809,1.868,2.704,2.811l0.799,0.841l-2.659,0.005c-3.848,0-7.877-0.036-11.976-0.107l-1.178-0.021l0.833-0.833
		c1.966-1.966,4.033-4.105,6.702-6.937L53.899,19.508z M32.281,14.41c5.542,0.03,11.082,0.059,16.623,0.021l1.169-0.008
		l-0.802,0.851c-2.594,2.753-5.674,5.981-8.848,9.054l-0.335,0.325l-0.347-0.312c-3.782-3.404-7.439-6.361-11.179-9.041
		l-1.276-0.914L32.281,14.41z M15.973,26.095c1.806-2.209,3.689-4.652,5.757-7.467l0.351-0.478l0.412,0.426
		c0.168,0.174,0.36,0.334,0.569,0.475c3.067,2.071,6.213,4.497,9.617,7.417l1.07,0.918l-6.315-0.176
		c-3.695-0.104-7.39-0.208-11.084-0.299l-1.021-0.025L15.973,26.095z M47.776,83.387C31.937,69.644,19.841,52.031,13.715,33.793
		l-0.227-0.676l0.712,0.017c4.454,0.104,8.909,0.229,13.364,0.354c3.443,0.096,6.887,0.192,10.33,0.279l0.459,0.012l0.027,0.458
		c1.05,17.599,4.478,33.946,10.188,48.59l0.735,1.886L47.776,83.387z M64.616,34.564c-0.289,14.742-2.911,30.118-8.252,48.391
		l-0.397,1.358l-0.544-1.307c-6.055-14.544-9.673-30.879-10.756-48.55l-0.033-0.542l0.542,0.011c5.125,0.1,9.747,0.149,14.13,0.149
		c1.602,0,3.204-0.006,4.806-0.021l0.514-0.004L64.616,34.564z M85.106,34.049C79.717,48.407,73.08,60.171,67.297,69.785
		l-1.607,2.673l0.691-3.042c2.836-12.475,4.313-23.926,4.514-35.011l0.009-0.479l0.479-0.012c5.183-0.129,9.385-0.3,13.224-0.54
		l0.771-0.048L85.106,34.049z"/>
</g>
</svg>
