<?xml version="1.0" encoding="iso-8859-1"?>
<!-- Generator: Adobe Illustrator 17.0.2, SVG Export Plug-In . SVG Version: 6.00 Build 0)  -->
<!DOCTYPE svg PUBLIC "-//W3C//DTD SVG 1.1//EN" "http://www.w3.org/Graphics/SVG/1.1/DTD/svg11.dtd">
<svg version="1.1" id="Capa_1" xmlns="http://www.w3.org/2000/svg" xmlns:xlink="http://www.w3.org/1999/xlink" x="0px" y="0px"
	 width="100px" height="100px" viewBox="0 0 100 100" style="enable-background:new 0 0 100 100;" xml:space="preserve">
<g>
	<path style="fill:#1E1E1C;" d="M92.415,43.661c1.203-0.172,1.755-0.969,1.808-1.869c0.025-0.17,0.037-0.349,0.027-0.542
		c-0.312-6.402-1.321-12.691-2.839-18.915c-0.008-0.032-0.022-0.057-0.031-0.088c-0.129-1.119-0.915-2.1-2.38-1.997
		c-7.274,0.509-15.251,0.956-23.513,1.367c2.815-1.683,5.382-3.805,7.581-6.669c2.344-3.053,5.984-9.666,0.263-11.59
		c-4.717-1.586-10.645,1.68-14.51,4.048c-4.262,2.612-8.069,6.087-10.759,10.287c-2.529-3.735-5.984-6.704-10.337-8.5
		C33.229,7.338,27.49,6.44,23.016,8.845c-4.293,2.308-3.193,7.078-0.48,10.108c1.54,1.721,3.598,3.187,5.733,4.321
		C20.812,23.595,13.613,23.914,7,24.25c-1.186,0.06-1.932,0.782-2.243,1.658C4.427,26.3,4.222,26.825,4.25,27.5
		C4.494,33.334,4.746,39.167,5,45c0.06,1.367,1.001,2.149,2.051,2.354c0.333,0.212,0.728,0.36,1.199,0.396
		c0.85,0.065,1.724,0.115,2.591,0.17C13.86,63.222,18.091,78.316,18.5,94c0.032,1.223,0.774,1.98,1.678,2.274
		c0.306,0.142,0.662,0.225,1.072,0.226c23.706,0.058,46.617-2.663,69.915-6.089c0.338-0.05,0.614-0.157,0.853-0.293
		c1.391,0.206,2.877-0.577,2.732-2.367c-1.074-13.314-3.398-30.469-5.398-43.664C90.385,43.946,91.408,43.805,92.415,43.661z
		 M70.431,8.023c0.337-0.032,0.662-0.025,0.987,0.018c-0.146,1.814-2.461,4.127-3.491,5.342c-4.219,4.972-10.603,6.877-16.699,8.722
		C54.698,15.283,62.982,8.733,70.431,8.023z M25.082,13.959c-0.16-0.451,0.02-0.673,0.863-1.009
		c7.052-2.805,15.059,2.644,18.793,8.758c-5.612-1.134-11.146-0.816-16.163-4.172C27.319,16.697,25.612,15.457,25.082,13.959z
		 M9.908,42.859c-0.199-4.575-0.396-9.15-0.588-13.725c11.618-0.583,25.241-1.124,38.859-1.718c0.516,0.355,1.189,0.495,1.985,0.244
		c0.411-0.129,0.82-0.258,1.229-0.386c12.52-0.555,24.902-1.159,35.582-1.89c1.033,4.535,1.79,9.093,2.14,13.729
		C65.549,42.415,33.696,44.499,9.908,42.859z M50.135,47.792c4.447-0.243,8.887-0.555,13.274-0.914
		c0.093,0.133,0.195,0.263,0.323,0.389c2.711,2.676,5.604,5.139,8.594,7.482H68.5c-0.581,0-1.053,0.166-1.425,0.432
		c-0.754,0.188-1.428,0.712-1.736,1.653c-0.636,1.942-1.162,3.905-1.6,5.892c-5.228-3.51-9.829-7.729-13.792-12.659
		c0.071-0.468,0.147-0.934,0.214-1.403C50.204,48.354,50.185,48.066,50.135,47.792z M45.233,48.031
		c-0.822,5.607-2.028,11.116-3.524,16.567c-1.451-1.895-2.918-3.778-4.441-5.616c-0.904-1.092-2.089-1.016-2.962-0.381
		c-1.75,0.724-3.513,1.409-5.294,2.043c0.965-4.011,1.543-8.087,1.693-12.226C35.475,48.382,40.343,48.245,45.233,48.031z
		 M89.555,85.633c-22.056,3.27-43.757,5.503-66.157,5.835c-0.744-14.686-4.505-28.908-7.413-43.279
		c3.164,0.128,6.409,0.205,9.721,0.229c-0.198,5.062-1.103,9.968-2.591,14.831c-0.895,1.692,0.425,4.354,2.801,3.661
		c3.002-0.876,5.931-1.952,8.826-3.128c1.916,2.371,3.771,4.789,5.601,7.229c0.063,0.085,0.136,0.16,0.205,0.238
		c0.986,1.555,3.905,1.734,4.614-0.586c1.437-4.706,2.673-9.448,3.654-14.25c4.34,4.791,9.354,8.874,14.923,12.244
		c0.378,0.229,0.749,0.337,1.104,0.364c1.27,0.492,2.794,0.104,3.068-1.608c0.416-2.6,1.013-5.149,1.764-7.665H79.5
		c1.875,0,2.652-1.688,2.347-3.104c-0.073-0.669-0.4-1.323-1.085-1.805c-3.758-2.648-7.363-5.467-10.761-8.544
		c4.948-0.469,9.786-0.998,14.424-1.572C86.275,57.01,88.431,73.254,89.555,85.633z"/>
</g>
</svg>
