<?xml version="1.0" encoding="utf-8"?>
<!-- Generator: Adobe Illustrator 17.0.2, SVG Export Plug-In . SVG Version: 6.00 Build 0)  -->
<!DOCTYPE svg PUBLIC "-//W3C//DTD SVG 1.1//EN" "http://www.w3.org/Graphics/SVG/1.1/DTD/svg11.dtd">
<svg version="1.1" id="Capa_1" xmlns="http://www.w3.org/2000/svg" xmlns:xlink="http://www.w3.org/1999/xlink" x="0px" y="0px"
	 width="100px" height="100px" viewBox="0 0 100 100" enable-background="new 0 0 100 100" xml:space="preserve">
<g>
	<path fill="#1D1D1B" d="M94.491,45.039c-3.473-2.181-7.766-0.26-11.066,1.265c-3.34-6.159-9.794-7.633-16.126-5.208
		c-0.187,0.011-0.38,0.039-0.586,0.106c-8.409,2.714-17.282,3.137-26.056,2.989c-4.43-0.074-8.857-0.293-13.286-0.399
		c-6.332-0.153-15.185-0.367-14.344,8.659c-1.716-0.298-3.419-0.617-5.106-0.959c-5.111-1.035-6.325,3.661-6.247,7.613
		c0.125,6.366,4.93,7.753,9.773,10.697c0.689,0.394-0.131,5.254,0.131,6.254c1.995,7.617,13.758,8.007,19.922,8.985
		c8.86,1.406,17.922,1.695,26.864,1.054c7.407-0.531,14.771-1.886,21.602-4.889c6.628-2.914,16.335-9.209,12.445-17.737
		c-0.044-0.097,3.843-5.942,4.223-6.996c1.084-3.004,1.522-7.031-0.362-9.742C95.82,46.08,95.234,45.505,94.491,45.039z
		 M19.613,48.171c0.003-0.002,0.006-0.004,0.01-0.006c16.055-0.329,32.082,2.311,47.712-2.551c0.26,0.006,0.541-0.039,0.844-0.161
		c4.496-1.808,8.618-1.536,11.17,2.6c-19.303,7.683-41.402,8.144-61.963,5.097c0.06-0.322,0.067-0.661,0.007-1.002
		C17.056,50.232,17.925,48.974,19.613,48.171z M88.392,68.705c-0.842,2.541-3.723,4.917-5.453,6.129
		c-7.793,5.462-18.689,6.602-27.952,7.054c-10.297,0.502-20.441-0.569-30.531-2.627c-3.021-0.616-7.807-1.463-8.867-4.97
		c-2.463-8.15,13.798-4.566,17.325-4.419c9.148,0.381,18.28,0.321,27.361-1.025c6.913-1.025,13.226-2.977,19.84-5.104
		c2.374-0.764,7.191-0.439,8.259,2.238C88.732,66.88,88.691,67.803,88.392,68.705z M92.845,52.742
		c-0.379,2.69-2.054,5.838-3.26,7.26c-2.008-1.366-4.647-1.794-6.999-1.829c-0.667-0.01-1.172,0.231-1.526,0.597
		c-0.079,0.023-0.154,0.036-0.236,0.07c-19.991,8.12-40.626,7.479-61.736,5.801c-0.219-0.017-0.415,0.001-0.6,0.035
		c-0.19-0.003-0.381,0.006-0.573,0.044c-1.156,0.227-2.274,0.625-3.268,1.232c-0.172-0.062-0.354-0.112-0.555-0.135
		c-3.117-0.362-6.427-2.148-7.72-5.089c-3.216-7.317,7.074-3.724,10.588-3.211c0.053,0.156,0.123,0.308,0.225,0.447
		c0.902,1.225,1.634,2.578,2.697,3.68c0.834,0.865,2.28,0.838,3.118,0c0.861-0.861,0.833-2.254,0-3.118
		c-0.023-0.024-0.129-0.146-0.226-0.256c2.435,0.273,4.885,0.491,7.341,0.656c0.493,1.372,1.334,2.505,2.56,3.356
		c0.989,0.686,2.445,0.185,3.016-0.791c0.455-0.777,0.356-1.619-0.085-2.289c4.193,0.133,8.392,0.079,12.572-0.166
		c0.161,0.494,0.48,0.933,0.959,1.188c0.121,0.064,0.236,0.133,0.35,0.207c0.011,0.008,0.014,0.01,0.024,0.016
		c0.025,0.021,0.051,0.042,0.076,0.064c0.2,0.171,0.387,0.358,0.574,0.544c0.85,0.849,2.268,0.85,3.118,0
		c0.656-0.656,0.8-1.651,0.442-2.462c2.674-0.276,5.333-0.646,7.971-1.105c0.178,0.257,0.403,0.489,0.676,0.679
		c0.055,0.048,0.11,0.095,0.163,0.145c0.186,0.172,0.351,0.365,0.514,0.558c0.048,0.066,0.096,0.132,0.143,0.199
		c0.153,0.216,0.299,0.437,0.446,0.657c0.666,0.998,1.933,1.426,3.016,0.791c0.99-0.58,1.459-2.016,0.791-3.017
		c-0.233-0.35-0.472-0.686-0.718-1.012c2.825-0.633,5.618-1.388,8.37-2.264c0.021,0.022,0.035,0.047,0.056,0.068
		c0.843,0.828,1.803,1.524,2.646,2.352c0.857,0.842,2.263,0.855,3.118,0c0.844-0.844,0.857-2.276,0-3.118
		c-0.345-0.338-0.713-0.649-1.081-0.961c3.313-1.258,6.557-2.702,9.708-4.375C92.493,48.321,93.182,50.35,92.845,52.742z"/>
	<path fill="#1D1D1B" d="M30.259,73.636c-2.844,0-2.844,4.41,0,4.41S33.103,73.636,30.259,73.636z"/>
	<path fill="#1D1D1B" d="M46.133,75.812c-2.844,0-2.844,4.41,0,4.41C48.977,80.221,48.977,75.812,46.133,75.812z"/>
	<path fill="#1D1D1B" d="M62.596,74.636c-2.844,0-2.844,4.41,0,4.41C65.439,79.045,65.439,74.636,62.596,74.636z"/>
	<path fill="#1D1D1B" d="M77.882,69.932c-2.844,0-2.844,4.41,0,4.41C80.726,74.342,80.726,69.932,77.882,69.932z"/>
	<path fill="#1D1D1B" d="M31.073,26.724c1.297,3.173-0.599,5.644-2.837,7.785c-1.809,1.731,0.936,4.467,2.74,2.74
		c3.942-3.771,5.537-7.996,3.171-13.09c-2.495-5.372-7.131-9.163-3.901-15.464C31.384,6.477,28.04,4.515,26.9,6.74
		c-2.484,4.846-2.038,9.351,0.64,13.99C28.695,22.731,30.194,24.572,31.073,26.724z"/>
	<path fill="#1D1D1B" d="M58.073,26.724c1.297,3.173-0.599,5.644-2.837,7.785c-1.809,1.731,0.936,4.467,2.74,2.74
		c3.942-3.771,5.537-7.996,3.171-13.09c-2.495-5.372-7.131-9.163-3.901-15.464C58.384,6.477,55.04,4.515,53.9,6.74
		c-2.484,4.846-2.038,9.351,0.64,13.99C55.695,22.731,57.194,24.572,58.073,26.724z"/>
</g>
</svg>
