<?xml version="1.0" encoding="iso-8859-1"?>
<!-- Generator: Adobe Illustrator 17.0.2, SVG Export Plug-In . SVG Version: 6.00 Build 0)  -->
<!DOCTYPE svg PUBLIC "-//W3C//DTD SVG 1.1//EN" "http://www.w3.org/Graphics/SVG/1.1/DTD/svg11.dtd">
<svg version="1.1" id="Capa_1" xmlns="http://www.w3.org/2000/svg" xmlns:xlink="http://www.w3.org/1999/xlink" x="0px" y="0px"
	 width="100px" height="100px" viewBox="0 0 100 100" style="enable-background:new 0 0 100 100;" xml:space="preserve">
<g>
	<path style="fill:#1E1E1C;" d="M93.141,26.176c-26.117,0.403-60.364,1.359-86.474,0.491c-1.069-0.036-1.682,0.633-1.862,1.431
		c-0.023,0.068-0.053,0.132-0.066,0.204C4.569,29.199,4.5,30.09,4.5,31c-0.674,9.572-0.529,28.163-0.75,37.75
		c-0.008,0.351,0.063,0.649,0.186,0.904c0.213,0.78,0.815,1.478,1.814,1.596c26.61,3.154,61.366,0.793,88-0.75
		c0.475-0.028,0.861-0.188,1.16-0.429c0.886-0.113,1.66-0.743,1.59-1.904C95.872,57.787,95.834,38.395,95.833,28
		C95.833,26.406,94.308,25.8,93.141,26.176z M7.774,67.464C7.956,58.305,7.856,40.144,8.5,31c0-0.096,0.004-0.192,0.005-0.288
		c25.07,0.752,58.259-0.11,83.333-0.514c0.01,9.132,0.087,27.26,0.587,36.38C66.903,68.081,33.275,70.222,7.774,67.464z"/>
	<path style="fill:#1E1E1C;" d="M58.526,49.105c-2.02-1.614-4.518-2.329-7.067-2.851c-0.085-2.134-0.171-4.268-0.266-6.402
		c1.11,0.244,2.173,0.601,3.077,1.019c2.21,1.02,3.401-2.56,1.22-3.567c-1.293-0.597-2.843-1.062-4.467-1.312
		c-0.007-0.148-0.014-0.296-0.019-0.443c-0.104-2.403-3.868-2.656-3.763-0.228c0.007,0.174,0.015,0.348,0.022,0.522
		c-2.414,0.194-4.694,0.999-6.254,2.71c-2.874,3.151-0.744,8.593,2.974,9.939c1.231,0.446,2.531,0.714,3.846,0.946
		c0.1,2.881,0.162,5.763,0.2,8.646c-1.724-0.81-3.292-2.007-4.267-3.07c-1.644-1.79-4.468,0.705-2.822,2.499
		c1.649,1.797,4.296,3.589,7.118,4.554c-0.002,0.384,0.009,0.767,0.007,1.151c-0.013,2.421,3.749,2.662,3.763,0.228
		c0.001-0.221-0.006-0.442-0.004-0.663c1.937,0.04,3.786-0.484,5.28-1.865C60.297,57.971,62.572,52.339,58.526,49.105z
		 M46.041,45.171c-2.397-0.6-3.713-3.573-1.043-4.914c0.739-0.371,1.568-0.575,2.432-0.666c0.087,1.981,0.168,3.962,0.248,5.943
		C47.123,45.424,46.575,45.305,46.041,45.171z M54.336,58.282c-0.76,0.515-1.629,0.731-2.538,0.74
		c-0.031-2.962-0.093-5.924-0.192-8.884c1.575,0.363,3.095,0.877,4.457,1.807C58.333,53.494,55.911,57.211,54.336,58.282z"/>
	<path style="fill:#1E1E1C;" d="M93.667,71.5C64.677,73.986,35.54,75.265,6.5,72.833c-2.572-0.215-2.551,3.786,0,4
		c29.04,2.431,58.177,1.152,87.167-1.333C96.217,75.281,96.238,71.279,93.667,71.5z"/>
	<path style="fill:#1E1E1C;" d="M93.667,77.5C64.677,79.986,35.54,81.265,6.5,78.833c-2.572-0.215-2.551,3.786,0,4
		c29.04,2.431,58.177,1.152,87.167-1.333C96.217,81.281,96.238,77.279,93.667,77.5z"/>
	<path style="fill:#1E1E1C;" d="M93.667,83.5C64.677,85.986,35.54,87.265,6.5,84.833c-2.572-0.215-2.551,3.786,0,4
		c29.04,2.431,58.177,1.152,87.167-1.333C96.217,87.281,96.238,83.279,93.667,83.5z"/>
	<path style="fill:#1E1E1C;" d="M20.62,38.222c0-0.033,0.008-0.064,0.005-0.097c-0.1-1.301-0.487-2.577-1.516-3.449
		c-1.074-0.911-2.484-1.181-3.859-1.051c-0.109,0.01-0.216,0.031-0.319,0.058c-1.265,0.133-2.423,0.606-3.366,1.507
		c-0.128,0.122-0.218,0.253-0.29,0.385c-0.085,0.124-0.162,0.257-0.221,0.402c-0.415,1.016-0.513,2.095-0.294,3.163
		c-0.025,0.296,0.034,0.599,0.195,0.868c0.632,1.06,1.524,1.853,2.538,2.538c0.071,0.048,0.148,0.084,0.226,0.115
		c0.113,0.065,0.237,0.122,0.383,0.161c1.606,0.429,3.226,0.192,4.655-0.651c0.162-0.096,0.286-0.21,0.391-0.331
		c0.013-0.01,0.026-0.018,0.038-0.028c1.011-0.883,1.573-2.219,1.439-3.561C20.624,38.24,20.621,38.232,20.62,38.222z M17.55,39.111
		c-0.002-0.046-0.175,0.291-0.208,0.339c0.115-0.168-0.131,0.092-0.233,0.195c-0.677,0.364-1.359,0.478-2.114,0.299
		c-0.454-0.309-0.926-0.723-1.277-1.208c-0.007-0.045-0.009-0.09-0.021-0.135c-0.123-0.483-0.072-0.898,0.076-1.358
		c0.481-0.421,1.054-0.606,1.728-0.618c0.084-0.002,0.158-0.016,0.235-0.028c0.495-0.009,0.946,0.054,1.289,0.249
		c0.166,0.094,0.259,0.221,0.364,0.392c0.129,0.211,0.211,0.555,0.236,0.887c0.001,0.008,0.003,0.015,0.004,0.022
		c0,0.035-0.008,0.068-0.004,0.103c0.019,0.182,0.02,0.36,0.012,0.542C17.626,38.763,17.578,38.989,17.55,39.111z"/>
	<path style="fill:#1E1E1C;" d="M89.62,37.222c0-0.033,0.008-0.064,0.005-0.097c-0.1-1.301-0.487-2.577-1.516-3.449
		c-1.074-0.911-2.484-1.181-3.859-1.051c-0.109,0.01-0.216,0.031-0.319,0.058c-1.265,0.133-2.423,0.606-3.366,1.507
		c-0.128,0.122-0.218,0.253-0.29,0.385c-0.085,0.124-0.162,0.257-0.221,0.402c-0.415,1.016-0.513,2.095-0.294,3.163
		c-0.025,0.296,0.034,0.599,0.195,0.868c0.632,1.06,1.524,1.853,2.538,2.538c0.071,0.048,0.148,0.084,0.226,0.115
		c0.113,0.065,0.237,0.122,0.383,0.161c1.606,0.429,3.226,0.192,4.655-0.651c0.162-0.096,0.286-0.21,0.391-0.331
		c0.013-0.01,0.026-0.018,0.038-0.028c1.011-0.883,1.573-2.219,1.439-3.561C89.624,37.24,89.621,37.232,89.62,37.222z M86.55,38.111
		c-0.002-0.046-0.175,0.291-0.208,0.339c0.115-0.168-0.131,0.092-0.233,0.195c-0.677,0.364-1.359,0.478-2.114,0.299
		c-0.454-0.309-0.926-0.723-1.277-1.208c-0.007-0.045-0.009-0.09-0.021-0.135c-0.123-0.483-0.072-0.898,0.076-1.358
		c0.481-0.421,1.054-0.606,1.728-0.618c0.084-0.002,0.158-0.016,0.235-0.028c0.495-0.009,0.946,0.054,1.289,0.249
		c0.166,0.094,0.259,0.221,0.364,0.392c0.129,0.211,0.211,0.555,0.236,0.887c0.001,0.008,0.003,0.015,0.004,0.022
		c0,0.035-0.008,0.068-0.004,0.103c0.019,0.182,0.02,0.36,0.012,0.542C86.626,37.763,86.578,37.989,86.55,38.111z"/>
</g>
</svg>
