<?xml version="1.0" encoding="utf-8"?>
<!-- Generator: Adobe Illustrator 16.0.0, SVG Export Plug-In . SVG Version: 6.00 Build 0)  -->
<!DOCTYPE svg PUBLIC "-//W3C//DTD SVG 1.1//EN" "http://www.w3.org/Graphics/SVG/1.1/DTD/svg11.dtd">
<svg version="1.1" id="Layer_1" xmlns="http://www.w3.org/2000/svg" xmlns:xlink="http://www.w3.org/1999/xlink" x="0px" y="0px"
	 width="100.01px" height="100.01px" viewBox="0 0 100.01 100.01" enable-background="new 0 0 100.01 100.01" xml:space="preserve">
<path d="M85.533,47.661c1.318-1.013,2.127-2.43,3.038-5.367c0.911-2.935,2.228-13.261,1.418-17.41
	C89.177,20.73,80.978,4.838,62.856,2.306C44.736-0.223,29.854,4.128,23.78,7.774C17.706,11.417,9.1,21.137,9.81,31.26
	c0.707,10.126,15.285,17.414,15.995,17.513c0,0-3.543,8.303-4.86,15.592c-1.316,7.288-1.519,16.502,2.024,23.487
	c3.545,6.983,14.478,9.92,24.197,10.426c9.719,0.505,21.157,0.101,31.078-3.341c9.922-3.442,11.745-18.322,11.643-22.779
	c-0.101-4.454-6.883-21.358-7.288-22.069C82.192,49.381,84.219,48.674,85.533,47.661 M52.937,8.179c1.72-0.102,2.529,0,5.466,1.013
	c2.936,1.011,1.922,3.239,0.304,4.454c-1.621,1.214-1.518,0.707-1.518,0.303c0-0.404-0.812-0.404-2.836-0.303
	c-2.023,0.1-5.162,0.403-8.2-1.214C43.116,10.81,50.301,8.334,52.937,8.179 M82.799,83.298c-2.225,4.251-4.047,6.985-9.415,8.299
	c-5.365,1.316-16.802,1.925-25.51,1.822c-8.707-0.103-18.528-1.417-21.563-10.326c-3.038-8.908-1.418-14.78,0.303-22.271
	c1.722-7.493,4.556-17.717,7.695-19.641c3.137-1.922,12.553-4.151,18.12-3.036c5.569,1.114,15.591,5.364,16.605,4.049
	c1.011-1.316,1.921-1.924,0.099-3.037c-1.822-1.113-12.451-3.847-16.399-4.05c-3.949-0.203-10.024,0.405-13.363,1.214
	c-3.342,0.812-6.885,1.925-9.211,4.252c-2.331,2.328-2.532,3.746-3.545,3.542c-0.794-0.158-4.757-3.339-6.884-4.958
	c-2.125-1.622-6.479-5.365-1.416-7.593c5.061-2.227,13.869-4.05,28.853-3.545c14.982,0.507,29.559,4.559,33.408,7.796
	c3.846,3.24,4.352,5.266,3.441,6.683c-0.911,1.417-2.834,3.744-3.239,2.529c-0.405-1.215-2.125-4.25-3.847-3.24
	c-1.722,1.014-1.722,3.341,0,7.493c1.721,4.149,6.58,16.095,7.693,20.955C85.736,75.097,85.028,79.045,82.799,83.298 M23.754,34.476
	c-0.303-0.987-1.061-0.911-2.505-0.761c-0.675,0.073-0.986,1.066,0.229,1.597C22.693,35.84,24.058,35.462,23.754,34.476
	 M24.589,36.829c-0.752-0.125-1.669,0.834-0.759,1.52c0.912,0.682,1.442,0.379,2.049-0.228
	C26.487,37.513,25.501,36.98,24.589,36.829 M28.841,34.854c-1.029-0.067-1.669,1.897-0.607,2.201
	c1.064,0.304,2.126-0.454,2.354-1.061C30.816,35.388,29.98,34.929,28.841,34.854 M30.285,32.881c0.38-0.61-0.379-1.217-1.29-1.217
	c-0.988,0-2.734,1.293-1.14,1.747C29.448,33.868,29.906,33.489,30.285,32.881 M34.612,32.046c1.366,0.453,2.883,0.225,2.505-0.459
	c-0.38-0.681-0.303-1.06-1.823-1.06C34.762,30.528,33.244,31.587,34.612,32.046 M35.066,33.714
	c-1.057-0.174-1.897,1.748-0.226,1.977c1.67,0.228,2.809-0.762,2.431-1.369C36.889,33.714,35.979,33.868,35.066,33.714
	 M43.041,30.374c-0.554,0.027-1.671,1.29,0,1.747c1.668,0.458,2.201-0.682,1.896-0.986C44.634,30.831,44.709,30.299,43.041,30.374
	 M43.192,33.261c-0.819-0.166-1.899,0.757-0.684,1.061c1.215,0.303,2.277,0.154,2.429-0.304
	C45.089,33.564,43.953,33.411,43.192,33.261 M50.405,30.677c-1.675-0.104-2.125,1.14-0.834,1.747C50.862,33.032,52,32.5,52,31.817
	C52,31.135,51.62,30.753,50.405,30.677 M58.074,32.121c-1.28-0.153-1.366,1.215-0.076,1.747s1.822,0,1.897-0.682
	C59.974,32.5,59.974,32.35,58.074,32.121 M70.451,33.714c-0.684-0.683-1.14-0.454-2.276-0.683c-0.823-0.162-1.824,1.749,0.075,2.356
	C70.146,35.995,71.133,34.4,70.451,33.714 M72.271,40.018c1.669,0.76,2.809,0.152,2.43-0.837c-0.379-0.985-0.682-0.832-1.671-0.985
	C72.084,38.05,70.601,39.259,72.271,40.018 M76.373,39.259c1.442,0.759,1.898-0.303,2.048-0.835
	c0.153-0.532-0.529-1.519-1.364-1.595C75.826,36.715,74.932,38.5,76.373,39.259 M69.843,51.862c-1.232-0.39-1.365,5.237,0.15,9.341
	c1.519,4.097,6.38,15.335,4.026,17.993c-2.355,2.659-4.253,3.19-3.341,4.405c0.911,1.214,5.694-1.14,6.529-4.253
	c0.835-3.114-0.684-7.442-2.809-14.048C72.271,58.697,71.287,52.317,69.843,51.862"/>
</svg>
