<?xml version="1.0" encoding="utf-8"?>
<!-- Generator: Adobe Illustrator 17.0.2, SVG Export Plug-In . SVG Version: 6.00 Build 0)  -->
<!DOCTYPE svg PUBLIC "-//W3C//DTD SVG 1.1//EN" "http://www.w3.org/Graphics/SVG/1.1/DTD/svg11.dtd">
<svg version="1.1" id="Capa_1" xmlns="http://www.w3.org/2000/svg" xmlns:xlink="http://www.w3.org/1999/xlink" x="0px" y="0px"
	 width="100px" height="100px" viewBox="0 0 100 100" enable-background="new 0 0 100 100" xml:space="preserve">
<g>
	<path fill="#1D1D1B" d="M87.383,13.663c0.707,4.245,3.246,11.99,1.232,16.733c-3.18-6.962-12.611-10.659-19.864-10.66
		c-0.366,0-0.68,0.078-0.949,0.207c-7.722,0.969-14.07,6.301-15.52,13.5H47.19c-1.484-8.927-12.547-13.707-20.795-13.708
		c-0.366,0-0.68,0.078-0.949,0.207c-6.601,0.828-12.199,4.846-14.595,10.489c-1.601-5.043,0.23-11.181,0.796-16.263
		c0.308-2.769-4.019-2.739-4.324,0c-0.878,7.885-3.238,16.124,2.301,22.754c0.019,0.884,0.084,1.78,0.251,2.699
		c1.794,9.832,12.527,13.564,21.222,12.31c7.559-1.09,14.765-6.438,16.055-14.165h4.844c0.044,0.61,0.121,1.229,0.236,1.855
		c1.794,9.832,12.527,13.564,21.222,12.31c7.73-1.115,15.109-6.676,16.15-14.688c0.056-0.429,0.084-0.849,0.1-1.263
		c6.381-5.715,3.075-16.097,1.848-23.468C91.096,9.768,86.93,10.937,87.383,13.663z M31.624,47.437
		c-6.071,1.617-12.553-0.157-16.141-5.449c-5.369-7.918,2.352-16.992,10.482-17.8c0.214-0.021,0.405-0.075,0.587-0.141
		c7.455,0.053,16.282,3.867,16.431,12.443C43.085,42.439,36.56,46.123,31.624,47.437z M73.98,47.437
		c-6.071,1.617-12.553-0.157-16.141-5.449c-5.369-7.918,2.353-16.992,10.482-17.8c0.214-0.021,0.405-0.075,0.587-0.141
		c7.455,0.053,16.282,3.867,16.431,12.443C85.442,42.439,78.916,46.123,73.98,47.437z"/>
	<path fill="#1D1D1B" d="M89.816,62.66c-0.24,0.092-0.478,0.223-0.703,0.42c-7.375,6.473-15.358,0.5-22.712-2.789
		c-5.667-2.534-11.397-3.177-16.697,0.201c-5.3-3.378-11.031-2.735-16.697-0.201c-7.354,3.289-15.338,9.262-22.712,2.789
		c-0.225-0.198-0.463-0.329-0.703-0.42c-1.345-0.728-3.348-0.147-3.168,1.768c1.969,20.857,29.534,25.318,43.28,12.728
		c13.746,12.59,41.311,8.129,43.28-12.728C93.164,62.513,91.161,61.932,89.816,62.66z M51.771,73.129
		c-0.271-0.734-0.912-1.315-1.933-1.315c-0.048,0-0.088,0.011-0.134,0.014c-0.046-0.003-0.086-0.014-0.134-0.014
		c-1.021,0-1.662,0.581-1.933,1.315c-9.582,9.703-30.612,9.274-35.803-4.025c4.271,1.853,8.813,1.474,13.72-0.529
		c7.313-2.986,14.959-9.354,22.653-3.901c0.524,0.371,1.039,0.45,1.498,0.346c0.459,0.104,0.974,0.026,1.498-0.346
		c7.693-5.453,15.339,0.916,22.652,3.901c4.907,2.003,9.449,2.381,13.72,0.529C82.382,82.403,61.352,82.832,51.771,73.129z"/>
</g>
</svg>
