<?xml version="1.0" encoding="iso-8859-1"?>
<!-- Generator: Adobe Illustrator 17.0.2, SVG Export Plug-In . SVG Version: 6.00 Build 0)  -->
<!DOCTYPE svg PUBLIC "-//W3C//DTD SVG 1.1//EN" "http://www.w3.org/Graphics/SVG/1.1/DTD/svg11.dtd">
<svg version="1.1" id="Capa_1" xmlns="http://www.w3.org/2000/svg" xmlns:xlink="http://www.w3.org/1999/xlink" x="0px" y="0px"
	 width="100px" height="100px" viewBox="0 0 100 100" style="enable-background:new 0 0 100 100;" xml:space="preserve">
<g>
	<path style="fill:#1D1D1B;" d="M80.191,5.156c-0.171-0.95-0.871-1.813-2.101-1.876c-19.49-1.002-38.923,0.795-58.381,1.668
		c-1.384,0.062-2.095,1.14-2.139,2.219c-0.268,0.345-0.42,0.805-0.363,1.395c2.642,27.363,0.931,54.899,3.058,82.289
		c0.014,0.18,0.046,0.348,0.091,0.505c0.042,1.082,0.751,2.18,2.133,2.275c18.821,1.3,37.641,0.034,56.435-1.112
		c0.191-0.012,0.368-0.045,0.533-0.093c1.073-0.053,2.153-0.761,2.247-2.131c1.9-27.848,0.391-56.114-1.112-83.957
		C80.567,5.863,80.414,5.474,80.191,5.156z M77.386,88.165c-17.579,1.074-35.178,2.169-52.78,1.13
		C22.676,62.664,24.213,35.902,21.719,9.3c18.162-0.87,36.306-2.424,54.496-1.652C77.655,34.358,79.043,61.443,77.386,88.165z"/>
	<path style="fill:#1D1D1B;" d="M46.022,31.459c-0.09,0.001-0.176-0.005-0.273,0.007c-11.614,1.442-19.09,12.502-14.632,23.74
		c3.853,9.711,14.468,13.051,24.015,11.303c8.679-1.59,16.957-8.403,17.196-17.657C72.692,34.861,57.17,30.474,46.022,31.459z
		 M57.018,61.376c-6.336,2.348-13.688,1.512-18.667-3.221c-8.073-7.677-3.448-20.895,7.398-22.242c0,0,0.004-0.001,0.006-0.001
		c0.061-0.001,0.115,0.007,0.179,0.001c9.252-0.842,19.586,1.09,21.84,11.568C69.22,54.199,62.463,59.358,57.018,61.376z"/>
	<path style="fill:#1D1D1B;" d="M47.788,42.849c-0.016-2.868-4.464-2.869-4.448,0c0.014,2.415,0.186,4.821,0.371,7.228
		c0.218,2.841,4.667,2.862,4.448,0C47.974,47.67,47.802,45.264,47.788,42.849z"/>
	<path style="fill:#1D1D1B;" d="M52.606,42.664c0.177,2.283,0.186,4.569,0.186,6.857c0,2.868,4.448,2.868,4.448,0
		c0-2.288-0.008-4.575-0.185-6.857C56.834,39.823,52.385,39.802,52.606,42.664z"/>
	<path style="fill:#1D1D1B;" d="M50.864,53.507c-1.488-0.054-3.196,1.58-3.065,3.166c0.239,2.875,3.053,3.476,5.096,1.996
		c1.356-0.983,1.491-2.374,0.88-3.464C53.251,54.269,52.181,53.554,50.864,53.507z"/>
	<path style="fill:#1D1D1B;" d="M45.747,23.907c2.154,1.023,4.976,1.388,7.025-0.034c2.171-1.507,4.101-4.498,3.555-7.25
		c-1.049-5.287-8.626-5.941-12.171-2.903C40.411,16.931,41.551,21.914,45.747,23.907z M51.34,16.377
		c1.724,1.11-0.14,3.365-1.528,3.721c-1.188,0.305-2.613-0.311-2.762-1.542c-0.017-0.136-0.018-0.28,0-0.431
		C47.244,16.397,49.947,15.48,51.34,16.377z"/>
	<path style="fill:#1D1D1B;" d="M45.961,75.994c-3.745,3.21-2.605,8.193,1.591,10.187c2.155,1.024,4.976,1.388,7.025-0.034
		c2.17-1.507,4.1-4.498,3.555-7.25C57.084,73.61,49.506,72.956,45.961,75.994z M51.618,82.371c-1.188,0.305-2.613-0.311-2.762-1.542
		c-0.017-0.136-0.017-0.28,0-0.431c0.194-1.728,2.897-2.645,4.291-1.748C54.871,79.76,53.006,82.015,51.618,82.371z"/>
</g>
</svg>
