<?xml version="1.0" encoding="utf-8"?>
<!-- Generator: Adobe Illustrator 17.0.2, SVG Export Plug-In . SVG Version: 6.00 Build 0)  -->
<!DOCTYPE svg PUBLIC "-//W3C//DTD SVG 1.1//EN" "http://www.w3.org/Graphics/SVG/1.1/DTD/svg11.dtd">
<svg version="1.1" id="Capa_1" xmlns="http://www.w3.org/2000/svg" xmlns:xlink="http://www.w3.org/1999/xlink" x="0px" y="0px"
	 width="100px" height="100px" viewBox="0 0 100 100" enable-background="new 0 0 100 100" xml:space="preserve">
<g>
	<path fill="#1D1D1B" d="M93.333,43.833c-7.726-0.282-15.454-0.324-23.184-0.33c-0.095-8.293,0.122-13.579,0.023-21.872
		C70.835,20.151,70.117,18,68,18c-10.296,0-23.621,0.76-33.911,0.368c-0.447-0.122-0.934-0.128-1.402-0.018
		c-1.598,0.104-2.284,1.556-2.052,2.874c-0.352,4.928-0.351,9.865-0.426,14.802c-7.013,0.118-16.027,0.14-23.041,0.141
		c-1.06,0-1.765,0.544-2.128,1.27c-0.422,0.401-0.704,0.973-0.706,1.73c-0.019,9.896-0.283,20.79-0.005,30.684
		C4.005,71.27,4.78,72.987,6.667,73c28.799,0.203,57.71,1.151,86.5,0.333c1.516-0.043,2.31-1.176,2.399-2.353
		c0.165-0.323,0.268-0.701,0.268-1.147v-23c0-0.272-0.046-0.513-0.112-0.739C95.592,44.958,94.8,43.887,93.333,43.833z
		 M90.833,68.383c-27.143,0.682-54.386-0.125-81.538-0.357C9.108,59.405,9.277,49.784,9.32,41.162
		c7.005-0.003,16.009-0.021,23.013-0.162c0.263-0.005,0.496-0.054,0.716-0.119c1.092-0.168,2.083-0.961,2.117-2.381
		c0.12-5.03,0.087-10.063,0.345-15.087c8.879,0.249,20.781-0.285,29.667-0.391c0.065,8.549-0.173,14.092-0.012,22.644
		c0.005,0.254,0.05,0.481,0.111,0.695c0.141,1.118,0.933,2.138,2.389,2.138c7.724,0,15.446,0.029,23.167,0.262V68.383z"/>
	<path fill="#1D1D1B" d="M51.027,25.848c-0.159,0.032-0.314,0.088-0.451,0.19c-1.502,1.119-3.05,2.176-4.47,3.401
		c-1.467,1.266,0.664,3.378,2.121,2.121c0.613-0.529,1.254-1.019,1.904-1.499c-0.044,3.535-0.121,7.07-0.131,10.605
		c-0.005,1.935,2.995,1.934,3,0c0.012-4.501,0.155-8.999,0.167-13.5C53.17,25.913,51.915,25.477,51.027,25.848z"/>
	<path fill="#1D1D1B" d="M25.833,55c-0.924,0-1.846,0.01-2.768,0.03c1.57-1.593,2.741-3.548,2.911-5.741
		c0.383-4.953-6.162-4.084-9.042-3.235c-1.851,0.546-1.063,3.441,0.798,2.893c1.025-0.302,5.692-1.797,5.197,0.657
		c-0.521,2.581-3.182,4.615-5.353,5.768c-0.475,0.252-0.694,0.634-0.736,1.035c-0.323,0.92,0.112,2.069,1.326,1.927
		c2.549-0.298,5.103-0.333,7.667-0.333C27.768,58,27.768,55,25.833,55z"/>
	<path fill="#1D1D1B" d="M75.996,55.528c1.038-0.219,2.075-0.404,3.13-0.496c0.518-0.045,1.117-0.055,1.595-0.014
		c-0.356,0.475-0.822,0.898-1.273,1.286c-0.294,0.035-0.58,0.168-0.826,0.431c-0.52,0.558-0.613,1.665,0,2.207
		c0.887,0.784,1.773,1.621,2.365,2.69c0.05,0.094,0.096,0.19,0.141,0.288c0.008,0.024,0.013,0.041,0.033,0.099
		c0.009,0.032,0.016,0.065,0.024,0.097c-0.016,0.004-0.023,0.006-0.029,0.008c-0.055,0.004-0.11,0.01-0.166,0.011
		c-0.444,0.021-0.659-0.039-1.143-0.171c-1.267-0.344-2.419-1.071-3.503-1.832c-1.575-1.107-3.032,1.597-1.469,2.695
		c2.116,1.487,6.023,3.763,8.394,1.577c2.011-1.854,0.349-4.558-1.285-6.373c1.553-1.569,3.113-3.87,0.917-5.548
		c-0.846-0.646-2.148-0.635-3.134-0.609c-1.523,0.041-3.053,0.331-4.544,0.645C73.382,52.906,74.163,55.914,75.996,55.528z"/>
</g>
</svg>
