<?xml version="1.0" encoding="utf-8"?>
<!-- Generator: Adobe Illustrator 17.0.2, SVG Export Plug-In . SVG Version: 6.00 Build 0)  -->
<!DOCTYPE svg PUBLIC "-//W3C//DTD SVG 1.1//EN" "http://www.w3.org/Graphics/SVG/1.1/DTD/svg11.dtd">
<svg version="1.1" id="Capa_1" xmlns="http://www.w3.org/2000/svg" xmlns:xlink="http://www.w3.org/1999/xlink" x="0px" y="0px"
	 width="100px" height="100px" viewBox="0 0 100 100" enable-background="new 0 0 100 100" xml:space="preserve">
<g>
	<path fill="#1D1D1B" d="M92.531,68.277c0.923-8.404-0.786-16.354-8.007-21.645c-5.436-3.983-12.805-4.573-19.301-4.838
		c-6.511-0.265-13.301-0.723-19.578-2.789c-8.5-2.797-8.66-12.593-7.972-20.037c0.055-0.593-0.124-1.041-0.425-1.357
		c-0.312-0.482-0.828-0.84-1.559-0.875c-9.375-0.459-18.737-0.449-28.1,0.221c-1.198-0.443-2.762,0.138-2.652,1.763
		c1.106,16.353-0.06,32.783,1.586,49.103H6.176c-0.184,0-0.358,0.034-0.528,0.083c-0.946,0.059-1.883,0.69-1.952,1.901
		c-0.2,3.518,0.626,6.821,2.255,9.929c0.296,0.565,0.732,0.865,1.2,0.961c0.275,0.165,0.607,0.27,1.009,0.27
		c28.613-0.033,57.198-1.462,85.807-1.736c0.606-0.006,1.064-0.238,1.383-0.581c0.575-0.294,1.028-0.843,1.097-1.651
		c0.221-2.604-0.225-5.025-1.853-7.107C94.042,69.185,93.326,68.663,92.531,68.277z M88.682,67.306
		c-3.377-0.043-6.754-0.047-10.132-0.029c-0.316-6.789-1.164-13.505-2.546-20.154C85.701,49.717,89.696,57.441,88.682,67.306z
		 M33.573,20.614c-0.392,5.658-0.047,11.664,3.116,16.384c-0.086,0.095-0.166,0.199-0.234,0.312
		c-0.679,1.12-1.446,2.176-2.232,3.224c-0.65,0.867-0.141,2.215,0.712,2.714c1.014,0.594,2.067,0.152,2.714-0.712
		c0.607-0.81,1.191-1.635,1.745-2.482c0.695,0.583,1.446,1.082,2.234,1.517c-0.611,1.19-1.211,2.382-1.654,3.652
		c-0.355,1.022,0.395,2.168,1.386,2.44c1.095,0.301,2.086-0.365,2.441-1.386c0.388-1.115,0.956-2.152,1.501-3.197
		c0.917,0.273,1.858,0.476,2.805,0.652c-0.24,1.18-0.505,2.347-0.941,3.475c-0.39,1.01,0.421,2.175,1.386,2.44
		c1.122,0.309,2.051-0.378,2.441-1.386c0.465-1.206,0.738-2.456,0.992-3.72c0.018-0.09,0.023-0.179,0.032-0.269
		c0.718,0.067,1.429,0.122,2.124,0.168c5.873,0.392,11.792,0.789,17.622,1.795c1.556,6.95,2.491,13.961,2.822,21.071
		c-1.967,0.021-3.934,0.054-5.901,0.088c-0.158-0.04-0.324-0.067-0.508-0.069c-14.966-0.161-29.938,0.315-44.898,0.004
		c-0.476-8.41-5.054-15.747-12.875-19.573c-0.294-0.144-0.583-0.211-0.86-0.219C9.434,38.641,9.529,29.733,9.03,20.845
		C17.208,20.32,25.386,20.275,33.573,20.614z M19.297,67.228c-2.964-0.092-5.929-0.208-8.892-0.384
		c-0.47-4.995-0.677-10-0.787-15.009C15.481,55.17,18.812,60.679,19.297,67.228z M9.034,76.993
		c-0.775-1.678-1.237-3.394-1.359-5.202h0.292c0.281,0.156,0.598,0.253,0.938,0.248c0.888-0.012,1.746-0.146,2.587-0.365
		c0.191,0.068,0.403,0.109,0.637,0.117c2.701,0.095,5.402,0.155,8.104,0.197c0.559,0.286,1.273,0.294,1.875,0.03
		c21.91,0.25,43.816-0.981,65.729-0.744c0.061,0.006,0.115,0.02,0.178,0.021c1.455,0.025,2.777,0.28,3.774,1.403
		c0.581,0.655,0.748,1.63,0.768,2.585C64.711,75.586,36.885,76.933,9.034,76.993z"/>
</g>
</svg>
