<?xml version="1.0" encoding="iso-8859-1"?>
<!-- Generator: Adobe Illustrator 17.0.2, SVG Export Plug-In . SVG Version: 6.00 Build 0)  -->
<!DOCTYPE svg PUBLIC "-//W3C//DTD SVG 1.1//EN" "http://www.w3.org/Graphics/SVG/1.1/DTD/svg11.dtd">
<svg version="1.1" id="Capa_1" xmlns="http://www.w3.org/2000/svg" xmlns:xlink="http://www.w3.org/1999/xlink" x="0px" y="0px"
	 width="100px" height="100px" viewBox="0 0 100 100" style="enable-background:new 0 0 100 100;" xml:space="preserve">
<g>
	<path style="fill:#1D1D1B;" d="M96.167,13.333c-0.003-0.227-0.036-0.434-0.085-0.629c0.017-1.263-0.787-2.538-2.415-2.538h-6.333
		c-0.122,0-0.231,0.02-0.344,0.034c-0.691-0.133-1.442,0.036-2.09,0.698c-1.459,1.49-2.7,3.176-3.819,4.934h-3.274
		c-0.906-1.208-1.691-2.508-2.468-3.801c-0.229-1.005-1.003-1.866-2.338-1.866H31.667c-0.137,0-0.259,0.021-0.384,0.038
		c-0.763-0.109-1.565,0.079-2.05,0.694c-1.229,1.56-2.25,3.16-3.039,4.934h-4.298c-0.655-1.383-1.294-2.774-2.071-4.095
		c-0.067-0.113-0.144-0.204-0.219-0.301c-0.297-0.889-1.054-1.604-2.275-1.604c-2.833,0-7.319-0.935-9.953-0.096
		c-4.764,1.517-2.361,8.485-2.204,12.003c0.239,5.352,0.044,10.757,0.073,16.115c0.066,12.188,0.19,24.377,0.349,36.564
		C5.668,79.946,5.732,85.473,5.833,91c0.014,0.787,0.326,1.379,0.785,1.781c0.17,1.084,0.963,2.052,2.382,2.052
		c2.45-0.001,4.9-0.013,7.333-0.333c0.19-0.025,0.373-0.066,0.552-0.116c1.039,0.044,2.107-0.463,2.525-1.719
		c0.494-1.484,0.936-2.971,1.193-4.498h4.849c0.425,1,0.69,2.046,0.714,3.167c0.009,0.409,0.099,0.765,0.246,1.07
		c0.301,0.906,1.053,1.671,2.254,1.763c12.094,0.931,30.21,0.999,42.333,1c0.238,0,0.452-0.034,0.655-0.085
		c1.025,0.037,2.056-0.48,2.423-1.751c0.468-1.622,0.983-3.228,1.509-4.831h3.563c0.655,1.248,1.309,2.498,1.773,3.831
		c0.062,0.177,0.142,0.344,0.232,0.502c0.332,0.845,1.054,1.551,2.178,1.666c2.994,0.308,5.994,0.333,9,0.333
		c0.244,0,0.463-0.036,0.67-0.089c1.273,0.031,2.545-0.769,2.497-2.411C94.916,72.326,96.437,33.341,96.167,13.333z M90.457,89.817
		c-1.749-0.015-3.497-0.048-5.241-0.164c-0.704-1.681-1.567-3.284-2.391-4.914c-0.459-0.909-1.517-1.326-2.49-1.205
		C80.225,83.52,80.119,83.5,80,83.5h-6.333c-1.446,0-2.238,1.007-2.387,2.116c-0.007,0.019-0.017,0.033-0.024,0.053
		c-0.498,1.494-0.978,2.992-1.441,4.497c-10.959-0.006-27.912-0.096-38.847-0.841c-0.297-1.728-0.917-3.377-1.809-4.919
		c-0.561-0.969-1.447-1.287-2.299-1.186c-0.166-0.032-0.339-0.052-0.527-0.052h-8c-1.461,0-2.252,1.027-2.39,2.149
		c-0.06,0.211-0.104,0.434-0.11,0.684c-0.029,1.246-0.329,2.446-0.694,3.63c-1.438,0.134-2.882,0.181-4.327,0.196
		c-0.329-18.163-0.635-55.326-0.646-73.493c0-0.502-0.128-0.921-0.333-1.266v-0.234h5.989c0.857,1.55,1.567,3.175,2.353,4.762
		c0.413,0.835,1.339,1.241,2.24,1.213c0.085,0.008,0.163,0.025,0.252,0.025h7c0.891,0,1.527-0.388,1.926-0.941
		c0.364-0.317,0.649-0.739,0.818-1.227c0.431-1.244,1.065-2.417,1.823-3.498h39.163c0.98,1.588,2.008,3.129,3.169,4.601
		c0.263,0.334,0.625,0.532,1.018,0.638c0.37,0.263,0.839,0.427,1.416,0.427h5.667c1.33,0,2.102-0.853,2.335-1.853
		c0.83-1.349,1.725-2.632,2.77-3.813h3.402C91.328,33.722,90.073,71.261,90.457,89.817z"/>
	<path style="fill:#1D1D1B;" d="M27,26.5h-8.667c-1.84,0-2.625,1.627-2.366,3.025c-0.079,0.245-0.134,0.508-0.134,0.809v4.525
		C15.162,36.339,15.878,38.5,18,38.5c2.894-0.001,5.788-0.002,8.667-0.333c0.174-0.02,0.344-0.053,0.509-0.096
		c1.188-0.073,2.324-0.868,2.324-2.404V30c0-0.263-0.043-0.497-0.105-0.717C29.527,27.946,28.734,26.5,27,26.5z M24.5,33.352
		c-1.221,0.078-2.443,0.116-3.667,0.131V31.5H24.5V33.352z"/>
	<path style="fill:#1D1D1B;" d="M27,46.5h-8.667c-1.84,0-2.625,1.627-2.366,3.025c-0.079,0.245-0.134,0.508-0.134,0.809v4.525
		C15.162,56.339,15.878,58.5,18,58.5c2.894-0.001,5.788-0.002,8.667-0.333c0.174-0.02,0.344-0.053,0.509-0.096
		c1.188-0.073,2.324-0.868,2.324-2.404V50c0-0.263-0.043-0.497-0.105-0.717C29.527,47.946,28.734,46.5,27,46.5z M24.5,53.352
		c-1.221,0.078-2.443,0.116-3.667,0.131V51.5H24.5V53.352z"/>
	<path style="fill:#1D1D1B;" d="M27,66.5h-8.667c-1.84,0-2.625,1.627-2.366,3.025c-0.079,0.245-0.134,0.508-0.134,0.809v4.525
		C15.162,76.339,15.878,78.5,18,78.5c2.894-0.001,5.788-0.002,8.667-0.333c0.174-0.02,0.344-0.053,0.509-0.096
		c1.188-0.073,2.324-0.868,2.324-2.404V70c0-0.263-0.043-0.497-0.105-0.717C29.527,67.946,28.734,66.5,27,66.5z M24.5,73.352
		c-1.221,0.078-2.443,0.116-3.667,0.131V71.5H24.5V73.352z"/>
	<path style="fill:#1D1D1B;" d="M81,26.5h-8.667c-1.84,0-2.625,1.627-2.366,3.025c-0.079,0.245-0.134,0.508-0.134,0.809v4.525
		C69.162,36.339,69.878,38.5,72,38.5c2.894-0.001,5.788-0.002,8.667-0.333c0.174-0.02,0.344-0.053,0.509-0.096
		c1.188-0.073,2.324-0.868,2.324-2.404V30c0-0.263-0.043-0.497-0.105-0.717C83.527,27.946,82.734,26.5,81,26.5z M78.5,33.352
		c-1.221,0.078-2.443,0.116-3.667,0.131V31.5H78.5V33.352z"/>
	<path style="fill:#1D1D1B;" d="M81,46.5h-8.667c-1.84,0-2.625,1.627-2.366,3.025c-0.079,0.245-0.134,0.508-0.134,0.809v4.525
		C69.162,56.339,69.878,58.5,72,58.5c2.894-0.001,5.788-0.002,8.667-0.333c0.174-0.02,0.344-0.053,0.509-0.096
		c1.188-0.073,2.324-0.868,2.324-2.404V50c0-0.263-0.043-0.497-0.105-0.717C83.527,47.946,82.734,46.5,81,46.5z M78.5,53.352
		c-1.221,0.078-2.443,0.116-3.667,0.131V51.5H78.5V53.352z"/>
	<path style="fill:#1D1D1B;" d="M81,66.5h-8.667c-1.84,0-2.625,1.627-2.366,3.025c-0.079,0.245-0.134,0.508-0.134,0.809v4.525
		C69.162,76.339,69.878,78.5,72,78.5c2.894-0.001,5.788-0.002,8.667-0.333c0.174-0.02,0.344-0.053,0.509-0.096
		c1.188-0.073,2.324-0.868,2.324-2.404V70c0-0.263-0.043-0.497-0.105-0.717C83.527,67.946,82.734,66.5,81,66.5z M78.5,73.352
		c-1.221,0.078-2.443,0.116-3.667,0.131V71.5H78.5V73.352z"/>
	<path style="fill:#1D1D1B;" d="M58.852,48.179c-5.414-4.889-12.753-8.624-19.52-11.256c-5.638-2.19-2.346,28.711-2.165,30.744
		c0.005,0.06,0.023,0.111,0.032,0.168c-0.25,1.771,1.653,3.796,3.73,2.657c5.498-3.015,10.914-6.18,16.116-9.683
		c4.259-2.867,6.409-5.395,5.018-8.606C61.533,50.98,60.489,49.657,58.852,48.179z M41.902,64.224
		c-0.459-6.177-0.714-12.359-0.735-18.558c-0.001-0.241-0.037-0.458-0.09-0.663c0.053-0.207,0.09-0.426,0.09-0.67v-1.252
		c6.135,2.779,11.734,6.518,16.7,11.087C52.735,57.824,47.384,61.125,41.902,64.224z"/>
</g>
</svg>
